<svg display="none" xmlns="http://www.w3.org/2000/svg">

<symbol id="exit-run" viewBox="0 0 24 24">
<path d="M13.34,8.17C12.41,8.17 11.65,7.4 11.65,6.47A1.69,1.69 0 0,1 13.34,4.78C14.28,4.78 15.04,5.54 15.04,6.47C15.04,7.4 14.28,8.17 13.34,8.17M10.3,19.93L4.37,18.75L4.71,17.05L8.86,17.9L10.21,11.04L8.69,11.64V14.5H7V10.54L11.4,8.67L12.07,8.59C12.67,8.59 13.17,8.93 13.5,9.44L14.36,10.79C15.04,12 16.39,12.82 18,12.82V14.5C16.14,14.5 14.44,13.67 13.34,12.4L12.84,14.94L14.61,16.63V23H12.92V17.9L11.14,16.21L10.3,19.93M21,23H19V3H6V16.11L4,15.69V1H21V23M6,23H4V19.78L6,20.2V23Z" />
</symbol> 

<!-- Для сортування -->
<!-- chevron-up-down -->
<!-- <symbol id="chevron-up-down" viewBox="0 0 24 24">
    <path stroke-linecap="round" stroke-linejoin="round"
                    d="M8.25 15 12 18.75 15.75 15m-7.5-6L12 5.25 15.75 9" />
</symbol> -->
<symbol id="chevron-up-down" viewBox="0 0 32 32">
<path d="M16.71,7.29l-7-7a1,1,0,0,0-1.41,0l-7,7L2.71,8.71,8,3.41V32h2V3.41l5.29,5.29Z"/><path d="M29.29,23.29,24,28.59V0H22V28.59l-5.29-5.29-1.41,1.41,7,7a1,1,0,0,0,1.41,0l7-7Z"/>
</symbol>

<!-- chevron-up  'ASC' -->
<!-- <symbol id="chevron-up" viewBox="0 0 24 24">
    <path stroke-linecap="round" stroke-linejoin="round" d="m4.5 15.75 7.5-7.5 7.5 7.5" />
</symbol> -->

<!-- <symbol id="chevron-up" viewBox="0 0 32 32">
<path d="M27.414 12.586l-10-10c-0.781-0.781-2.047-0.781-2.828 0l-10 10c-0.781 0.781-0.781 2.047 0 2.828s2.047 0.781 2.828 0l6.586-6.586v19.172c0 1.105 0.895 2 2 2s2-0.895 2-2v-19.172l6.586 6.586c0.39 0.39 0.902 0.586 1.414 0.586s1.024-0.195 1.414-0.586c0.781-0.781 0.781-2.047 0-2.828z"></path>
</symbol>  -->

<!-- <symbol id="chevron-up" viewBox="0 0 24 24">
  <path d="M4.5 10.5 12 3m0 0 7.5 7.5M12 3v18" />
</symbol>  -->

<symbol id="chevron-up" viewBox="0 0 32 32">
  <path d="M26.71,10.29l-10-10a1,1,0,0,0-1.41,0l-10,10,1.41,1.41L15,3.41V32h2V3.41l8.29,8.29Z"/>
</symbol> 


<!-- chevron-down -->
<!-- <symbol id="chevron-down" viewBox="0 0 24 24">
    <path stroke-linecap="round" stroke-linejoin="round" d="m19.5 8.25-7.5 7.5-7.5-7.5" />
</symbol> -->

<!-- <symbol id="chevron-down" viewBox="0 0 32 32">
<path d="M27.414 19.414l-10 10c-0.781 0.781-2.047 0.781-2.828 0l-10-10c-0.781-0.781-0.781-2.047 0-2.828s2.047-0.781 2.828 0l6.586 6.586v-19.172c0-1.105 0.895-2 2-2s2 0.895 2 2v19.172l6.586-6.586c0.39-0.39 0.902-0.586 1.414-0.586s1.024 0.195 1.414 0.586c0.781 0.781 0.781 2.047 0 2.828z"></path>
</symbol> -->

<symbol id="chevron-down" viewBox="0 0 32 32">
<path d="M26.29,20.29,18,28.59V0H16V28.59L7.71,20.29,6.29,21.71l10,10a1,1,0,0,0,1.41,0l10-10Z"/>
</symbol>
<!-- ./Для сортування -->

<!-- Edit олівець -->
<symbol id="pen" viewBox="0 0 16 16">
    <path 
    d="M12.146.146a.5.5 0 0 1 .708 0l3 3a.5.5 0 0 1 0 .708l-10 10a.5.5 0 0 1-.168.11l-5 2a.5.5 0 0 1-.65-.65l2-5a.5.5 0 0 1 .11-.168l10-10zM11.207 2.5 13.5 4.793 14.793 3.5 12.5 1.207 11.207 2.5zm1.586 3L10.5 3.207 4 9.707V10h.5a.5.5 0 0 1 .5.5v.5h.5a.5.5 0 0 1 .5.5v.5h.293l6.5-6.5zm-9.761 5.175-.106.106-1.528 3.821 3.821-1.528.106-.106A.5.5 0 0 1 5 12.5V12h-.5a.5.5 0 0 1-.5-.5V11h-.5a.5.5 0 0 1-.468-.325z" />
        </symbol>

<!-- Delete trash сміттевий кошик -->
<!-- <symbol id="trash" viewBox="0 0 24 24">
<path stroke-linecap="round" stroke-linejoin="round" d="m14.74 9-.346 9m-4.788 0L9.26 9m9.968-3.21c.342.052.682.107 1.022.166m-1.022-.165L18.16 19.673a2.25 2.25 0 0 1-2.244 2.077H8.084a2.25 2.25 0 0 1-2.244-2.077L4.772 5.79m14.456 0a48.108 48.108 0 0 0-3.478-.397m-12 .562c.34-.059.68-.114 1.022-.165m0 0a48.11 48.11 0 0 1 3.478-.397m7.5 0v-.916c0-1.18-.91-2.164-2.09-2.201a51.964 51.964 0 0 0-3.32 0c-1.18.037-2.09 1.022-2.09 2.201v.916m7.5 0a48.667 48.667 0 0 0-7.5 0" />
</symbol> -->

<symbol id="trash" viewBox="0 0 25 25">
<path d="M20.5,4H16.86l-.69-2.06A1.37,1.37,0,0,0,14.87,1H10.13a1.37,1.37,0,0,0-1.3.94L8.14,4H4.5a.5.5,0,0,0,0,1h.34l1,17.59A1.45,1.45,0,0,0,7.2,24H17.8a1.45,1.45,0,0,0,1.41-1.41L20.16,5h.34a.5.5,0,0,0,0-1ZM9.77,2.26A.38.38,0,0,1,10.13,2h4.74a.38.38,0,0,1,.36.26L15.81,4H9.19Zm8.44,20.27a.45.45,0,0,1-.41.47H7.2a.45.45,0,0,1-.41-.47L5.84,5H19.16Z"/>
<path d="M9.5,10a.5.5,0,0,0-.5.5v7a.5.5,0,0,0,1,0v-7A.5.5,0,0,0,9.5,10Z"/>
<path d="M12.5,9a.5.5,0,0,0-.5.5v9a.5.5,0,0,0,1,0v-9A.5.5,0,0,0,12.5,9Z"/>
<path d="M15.5,10a.5.5,0,0,0-.5.5v7a.5.5,0,0,0,1,0v-7A.5.5,0,0,0,15.5,10Z"/>
</symbol>
<!-- <symbol id="trash" viewBox="0 0 16 16">
    <path
    d="M5.5 5.5A.5.5 0 0 1 6 6v6a.5.5 0 0 1-1 0V6a.5.5 0 0 1 .5-.5Zm2.5 0a.5.5 0 0 1 .5.5v6a.5.5 0 0 1-1 0V6a.5.5 0 0 1 .5-.5Zm3 .5a.5.5 0 0 0-1 0v6a.5.5 0 0 0 1 0V6Z" />
    <path
    d="M14.5 3a1 1 0 0 1-1 1H13v9a2 2 0 0 1-2 2H5a2 2 0 0 1-2-2V4h-.5a1 1 0 0 1-1-1V2a1 1 0 0 1 1-1H6a1 1 0 0 1 1-1h2a1 1 0 0 1 1 1h3.5a1 1 0 0 1 1 1v1ZM4.118 4 4 4.059V13a1 1 0 0 0 1 1h6a1 1 0 0 0 1-1V4.059L11.882 4H4.118ZM2.5 3h11V2h-11v1Z" />
</symbol> -->

<symbol id="closeX" viewBox="0 0 16 16">
    <path
                                    d="M4.646 4.646a.5.5 0 0 1 .708 0L8 7.293l2.646-2.647a.5.5 0 0 1 .708.708L8.707 8l2.647 2.646a.5.5 0 0 1-.708.708L8 8.707l-2.646 2.647a.5.5 0 0 1-.708-.708L7.293 8 4.646 5.354a.5.5 0 0 1 0-.708z" />
</symbol>

<symbol id="add" viewBox="0 -960 960 960">
  <path d="M450-450H200v-60h250v-250h60v250h250v60H510v250h-60v-250Z" />
  </symbol>
<symbol id="add-note" viewBox="0 0 24 24">
  <path
      d="M13.5,20 C14.3284271,20 15,19.3284271 15,18.5 C15,17.1192881 16.1192881,16 17.5,16 C18.3284271,16 19,15.3284271 19,14.5 L19,11.5 C19,11.2238576 19.2238576,11 19.5,11 C19.7761424,11 20,11.2238576 20,11.5 L20,14.5 C20,18.0898509 17.0898509,21 13.5,21 L6.5,21 C5.11928813,21 4,19.8807119 4,18.5 L4,5.5 C4,4.11928813 5.11928813,3 6.5,3 L12.5,3 C12.7761424,3 13,3.22385763 13,3.5 C13,3.77614237 12.7761424,4 12.5,4 L6.5,4 C5.67157288,4 5,4.67157288 5,5.5 L5,18.5 C5,19.3284271 5.67157288,20 6.5,20 L13.5,20 L13.5,20 Z M15.7913481,19.5014408 C16.9873685,18.9526013 17.9526013,17.9873685 18.5014408,16.7913481 C18.1948298,16.9255432 17.8561101,17 17.5,17 C16.6715729,17 16,17.6715729 16,18.5 C16,18.8561101 15.9255432,19.1948298 15.7913481,19.5014408 L15.7913481,19.5014408 Z M18,6 L20.5,6 C20.7761424,6 21,6.22385763 21,6.5 C21,6.77614237 20.7761424,7 20.5,7 L18,7 L18,9.5 C18,9.77614237 17.7761424,10 17.5,10 C17.2238576,10 17,9.77614237 17,9.5 L17,7 L14.5,7 C14.2238576,7 14,6.77614237 14,6.5 C14,6.22385763 14.2238576,6 14.5,6 L17,6 L17,3.5 C17,3.22385763 17.2238576,3 17.5,3 C17.7761424,3 18,3.22385763 18,3.5 L18,6 Z M8.5,9 C8.22385763,9 8,8.77614237 8,8.5 C8,8.22385763 8.22385763,8 8.5,8 L12.5,8 C12.7761424,8 13,8.22385763 13,8.5 C13,8.77614237 12.7761424,9 12.5,9 L8.5,9 Z M8.5,12 C8.22385763,12 8,11.7761424 8,11.5 C8,11.2238576 8.22385763,11 8.5,11 L15.5,11 C15.7761424,11 16,11.2238576 16,11.5 C16,11.7761424 15.7761424,12 15.5,12 L8.5,12 Z M8.5,15 C8.22385763,15 8,14.7761424 8,14.5 C8,14.2238576 8.22385763,14 8.5,14 L13.5,14 C13.7761424,14 14,14.2238576 14,14.5 C14,14.7761424 13.7761424,15 13.5,15 L8.5,15 Z"
    />
  </symbol>
<symbol id="back" viewBox="0 0 24 24">
<path
      d="M3.92399915,11.7649995 C3.77764399,11.9991677 3.4691688,12.0703543 3.23500053,11.9239992 C3.00083226,11.777644 2.92964568,11.4691688 3.07600085,11.2350005 C4.72258653,8.60046343 7.61021891,7 10.7169906,7 L11,7 C15.7839371,7 19.7251234,10.7427037 19.9862823,15.4990868 C19.9927927,15.617659 19.9970334,16.2631224 19.9999986,17.4988002 C20.0006612,17.7749418 19.7773414,17.9993359 19.5011998,17.9999986 C19.2250582,18.0006612 19.0006641,17.7773414 19.0000014,17.5011998 C18.9971538,16.3145297 18.9927506,15.6443258 18.9877863,15.5539113 C18.7556998,11.3270125 15.2522496,8 11,8 L10.7169906,8 C7.95500894,8 5.38784649,9.42284374 3.92399915,11.7649995 Z M8.5,11 C8.77614237,11 9,11.2238576 9,11.5 C9,11.7761424 8.77614237,12 8.5,12 L3.5,12 C3.22385763,12 3,11.7761424 3,11.5 L3,6.5 C3,6.22385763 3.22385763,6 3.5,6 C3.77614237,6 4,6.22385763 4,6.5 L4,11 L8.5,11 Z"
    />
  </symbol>
<symbol id="close" viewBox="0 -960 960 960">
  <path
      d="m249-207-42-42 231-231-231-231 42-42 231 231 231-231 42 42-231 231 231 231-42 42-231-231-231 231Z"
    /></symbol>

<!-- глаз - дивитись -->
<symbol id="visibility" viewBox="0 -960 960 960"> 
  <path
      d="M480.118-330Q551-330 600.5-379.618q49.5-49.617 49.5-120.5Q650-571 600.382-620.5q-49.617-49.5-120.5-49.5Q409-670 359.5-620.382q-49.5 49.617-49.5 120.5Q310-429 359.618-379.5q49.617 49.5 120.5 49.5Zm-.353-58Q433-388 400.5-420.735q-32.5-32.736-32.5-79.5Q368-547 400.735-579.5q32.736-32.5 79.5-32.5Q527-612 559.5-579.265q32.5 32.736 32.5 79.5Q592-453 559.265-420.5q-32.736 32.5-79.5 32.5ZM480-200q-146 0-264-83T40-500q58-134 176-217t264-83q146 0 264 83t176 217q-58 134-176 217t-264 83Zm0-300Zm-.169 240Q601-260 702.5-325.5 804-391 857-500q-53-109-154.331-174.5-101.332-65.5-222.5-65.5Q359-740 257.5-674.5 156-609 102-500q54 109 155.331 174.5 101.332 65.5 222.5 65.5Z"
    /></symbol>

<!-- пошук лупа -->
<symbol id="search" viewBox="-0.04 0 31.793 31.793">
<g transform="translate(-609.503 -130.759)">
  <path
        d="M622.914,132.759a11.41,11.41,0,1,1-11.411,11.41,11.424,11.424,0,0,1,11.411-11.41m0-2a13.41,13.41,0,1,0,13.41,13.41,13.41,13.41,0,0,0-13.41-13.41Z"
      />

  <path
        d="M640.208,162.552a1,1,0,0,1-.707-.292L631.64,154.4a1,1,0,1,1,1.414-1.414l7.861,7.86a1,1,0,0,1-.707,1.707Z"
      />
</g>
</symbol>


<symbol id="moon" viewBox="0 0 16 16">
<path
      d="M29.693,14.49c-0.469-0.174-1-0.035-1.32,0.353c-1.795,2.189-4.443,3.446-7.27,3.446c-5.183,0-9.396-4.216-9.396-9.397
		c0-2.608,1.051-5.036,2.963-6.835c0.366-0.347,0.471-0.885,0.264-1.343c-0.207-0.456-0.682-0.736-1.184-0.684
		C5.91,0.791,0,7.311,0,15.194c0,8.402,6.836,15.238,15.238,15.238c8.303,0,14.989-6.506,15.219-14.812
		C30.471,15.118,30.164,14.664,29.693,14.49z"
    />
</symbol>
<symbol id="sun" viewBox="0 0 16 16">
<path
      d="M8 12a4 4 0 1 0 0-8 4 4 0 0 0 0 8zM8 0a.5.5 0 0 1 .5.5v2a.5.5 0 0 1-1 0v-2A.5.5 0 0 1 8 0zm0 13a.5.5 0 0 1 .5.5v2a.5.5 0 0 1-1 0v-2A.5.5 0 0 1 8 13zm8-5a.5.5 0 0 1-.5.5h-2a.5.5 0 0 1 0-1h2a.5.5 0 0 1 .5.5zM3 8a.5.5 0 0 1-.5.5h-2a.5.5 0 0 1 0-1h2A.5.5 0 0 1 3 8zm10.657-5.657a.5.5 0 0 1 0 .707l-1.414 1.415a.5.5 0 1 1-.707-.708l1.414-1.414a.5.5 0 0 1 .707 0zm-9.193 9.193a.5.5 0 0 1 0 .707L3.05 13.657a.5.5 0 0 1-.707-.707l1.414-1.414a.5.5 0 0 1 .707 0zm9.193 2.121a.5.5 0 0 1-.707 0l-1.414-1.414a.5.5 0 0 1 .707-.707l1.414 1.414a.5.5 0 0 1 0 .707zM4.464 4.465a.5.5 0 0 1-.707 0L2.343 3.05a.5.5 0 1 1 .707-.707l1.414 1.414a.5.5 0 0 1 0 .708z"
    />
</symbol>

<symbol id="sun-light" viewBox="0 0 16 16">
<path
      d="M8 12a4 4 0 1 0 0-8 4 4 0 0 0 0 8zM8 0a.5.5 0 0 1 .5.5v2a.5.5 0 0 1-1 0v-2A.5.5 0 0 1 8 0zm0 13a.5.5 0 0 1 .5.5v2a.5.5 0 0 1-1 0v-2A.5.5 0 0 1 8 13zm8-5a.5.5 0 0 1-.5.5h-2a.5.5 0 0 1 0-1h2a.5.5 0 0 1 .5.5zM3 8a.5.5 0 0 1-.5.5h-2a.5.5 0 0 1 0-1h2A.5.5 0 0 1 3 8zm10.657-5.657a.5.5 0 0 1 0 .707l-1.414 1.415a.5.5 0 1 1-.707-.708l1.414-1.414a.5.5 0 0 1 .707 0zm-9.193 9.193a.5.5 0 0 1 0 .707L3.05 13.657a.5.5 0 0 1-.707-.707l1.414-1.414a.5.5 0 0 1 .707 0zm9.193 2.121a.5.5 0 0 1-.707 0l-1.414-1.414a.5.5 0 0 1 .707-.707l1.414 1.414a.5.5 0 0 1 0 .707zM4.464 4.465a.5.5 0 0 1-.707 0L2.343 3.05a.5.5 0 1 1 .707-.707l1.414 1.414a.5.5 0 0 1 0 .708z"
    />
</symbol>

<symbol id="lump" viewBox="0 0 384 512">
<path
      d="M281.2 248.9C295.6 228.3 304 203.2 304 176c0-70.7-57.3-128-128-128S48 105.3 48 176c0 27.2 8.4 52.3 22.8 72.9c3.7 5.3 8.1 11.3 12.8 17.7l0 0c12.9 17.7 28.3 38.9 39.8 59.8c10.4 19 15.7 38.8 18.3 57.5H93c-2.2-12-5.9-23.7-11.8-34.5c-9.9-18-22.2-34.9-34.5-51.8l0 0 0 0c-5.2-7.1-10.4-14.2-15.4-21.4C11.6 247.9 0 213.3 0 176C0 78.8 78.8 0 176 0s176 78.8 176 176c0 37.3-11.6 71.9-31.4 100.3c-5 7.2-10.2 14.3-15.4 21.4l0 0 0 0c-12.3 16.8-24.6 33.7-34.5 51.8c-5.9 10.8-9.6 22.5-11.8 34.5H210.4c2.6-18.7 7.9-38.6 18.3-57.5c11.5-20.9 26.9-42.1 39.8-59.8l0 0 0 0 0 0c4.7-6.4 9-12.4 12.7-17.7zM176 128c-26.5 0-48 21.5-48 48c0 8.8-7.2 16-16 16s-16-7.2-16-16c0-44.2 35.8-80 80-80c8.8 0 16 7.2 16 16s-7.2 16-16 16zm0 384c-44.2 0-80-35.8-80-80V416H256v16c0 44.2-35.8 80-80 80z"
    />
</symbol>

<symbol id="trash-can" viewBox="0 0 448 512">
<path
      d="M170.5 51.6L151.5 80h145l-19-28.4c-1.5-2.2-4-3.6-6.7-3.6H177.1c-2.7 0-5.2 1.3-6.7 3.6zm147-26.6L354.2 80H368h48 8c13.3 0 24 10.7 24 24s-10.7 24-24 24h-8V432c0 44.2-35.8 80-80 80H112c-44.2 0-80-35.8-80-80V128H24c-13.3 0-24-10.7-24-24S10.7 80 24 80h8H80 93.8l36.7-55.1C140.9 9.4 158.4 0 177.1 0h93.7c18.7 0 36.2 9.4 46.6 24.9zM80 128V432c0 17.7 14.3 32 32 32H336c17.7 0 32-14.3 32-32V128H80zm80 64V400c0 8.8-7.2 16-16 16s-16-7.2-16-16V192c0-8.8 7.2-16 16-16s16 7.2 16 16zm80 0V400c0 8.8-7.2 16-16 16s-16-7.2-16-16V192c0-8.8 7.2-16 16-16s16 7.2 16 16zm80 0V400c0 8.8-7.2 16-16 16s-16-7.2-16-16V192c0-8.8 7.2-16 16-16s16 7.2 16 16z"
    />
</symbol>

<symbol id="paste" viewBox="0 0 512 512">
<path
      d="M80 96v16c0 17.7 14.3 32 32 32h60.8c16.6-28.7 47.6-48 83.2-48h62c-7.1-27.6-32.2-48-62-48H215.4C211.6 20.9 188.2 0 160 0s-51.6 20.9-55.4 48H64C28.7 48 0 76.7 0 112V384c0 35.3 28.7 64 64 64h96V400H64c-8.8 0-16-7.2-16-16V112c0-8.8 7.2-16 16-16H80zm64-40a16 16 0 1 1 32 0 16 16 0 1 1 -32 0zM256 464c-8.8 0-16-7.2-16-16V192c0-8.8 7.2-16 16-16H384v48c0 17.7 14.3 32 32 32h48V448c0 8.8-7.2 16-16 16H256zm192 48c35.3 0 64-28.7 64-64V227.9c0-12.7-5.1-24.9-14.1-33.9l-51.9-51.9c-9-9-21.2-14.1-33.9-14.1H256c-35.3 0-64 28.7-64 64V448c0 35.3 28.7 64 64 64H448z"
    />
</symbol>

<symbol id="child" viewBox="0 0 320 512">
<path
      d="M80 96v16c0 17.7 14.3 32 32 32h60.8c16.6-28.7 47.6-48 83.2-48h62c-7.1-27.6-32.2-48-62-48H215.4C211.6 20.9 188.2 0 160 0s-51.6 20.9-55.4 48H64C28.7 48 0 76.7 0 112V384c0 35.3 28.7 64 64 64h96V400H64c-8.8 0-16-7.2-16-16V112c0-8.8 7.2-16 16-16H80zm64-40a16 16 0 1 1 32 0 16 16 0 1 1 -32 0zM256 464c-8.8 0-16-7.2-16-16V192c0-8.8 7.2-16 16-16H384v48c0 17.7 14.3 32 32 32h48V448c0 8.8-7.2 16-16 16H256zm192 48c35.3 0 64-28.7 64-64V227.9c0-12.7-5.1-24.9-14.1-33.9l-51.9-51.9c-9-9-21.2-14.1-33.9-14.1H256c-35.3 0-64 28.7-64 64V448c0 35.3 28.7 64 64 64H448z"
    />
</symbol>

<symbol id="child-dress" viewBox="0 0 320 512">
<path
      d="M224 64A64 64 0 1 0 96 64a64 64 0 1 0 128 0zM88 400v80c0 17.7 14.3 32 32 32s32-14.3 32-32V400h16v80c0 17.7 14.3 32 32 32s32-14.3 32-32V400h17.8c10.9 0 18.6-10.7 15.2-21.1l-31.1-93.4 28.6 37.8c10.7 14.1 30.8 16.8 44.8 6.2s16.8-30.7 6.2-44.8L254.6 207c-22.4-29.6-57.5-47-94.6-47s-72.2 17.4-94.6 47L6.5 284.7c-10.7 14.1-7.9 34.2 6.2 44.8s34.2 7.9 44.8-6.2l28.7-37.8L55 378.9C51.6 389.3 59.3 400 70.2 400H88z"
    />
</symbol>

<symbol id="children" viewBox="0 0 640 512">
<path
      d="M160 0a64 64 0 1 1 0 128A64 64 0 1 1 160 0zM88 480V400H70.2c-10.9 0-18.6-10.7-15.2-21.1l31.1-93.4L57.5 323.3c-10.7 14.1-30.8 16.8-44.8 6.2s-16.8-30.7-6.2-44.8L65.4 207c22.4-29.6 57.5-47 94.6-47s72.2 17.4 94.6 47l58.9 77.7c10.7 14.1 7.9 34.2-6.2 44.8s-34.2 7.9-44.8-6.2l-28.6-37.8L265 378.9c3.5 10.4-4.3 21.1-15.2 21.1H232v80c0 17.7-14.3 32-32 32s-32-14.3-32-32V400H152v80c0 17.7-14.3 32-32 32s-32-14.3-32-32zM480 0a64 64 0 1 1 0 128A64 64 0 1 1 480 0zm-8 384v96c0 17.7-14.3 32-32 32s-32-14.3-32-32V300.5L395.1 321c-9.4 15-29.2 19.4-44.1 10s-19.4-29.2-10-44.1l51.7-82.1c17.6-27.9 48.3-44.9 81.2-44.9h12.3c33 0 63.7 16.9 81.2 44.9L619.1 287c9.4 15 4.9 34.7-10 44.1s-34.7 4.9-44.1-10L552 300.5V480c0 17.7-14.3 32-32 32s-32-14.3-32-32V384H472z"
    />
</symbol>

<!-- викрутка та гаєчний ключ -->
<symbol id="tools" viewBox="0 0 32 32">
<path
      d="M25.128,31.48c-1.653,0-3.285-0.644-4.505-1.862c-1.697-1.698-2.29-4.224-1.542-6.493L8.874,12.92
	c-2.271,0.747-4.794,0.153-6.491-1.543c-1.904-1.903-2.404-4.813-1.244-7.24c0.05-0.105,0.148-0.18,0.264-0.2
	c0.118-0.018,0.233,0.018,0.315,0.101L5.72,8.04c0.64,0.638,1.68,0.639,2.32,0c0.639-0.64,0.639-1.68,0-2.32L4.038,1.718
	c-0.083-0.083-0.12-0.2-0.101-0.315c0.02-0.115,0.094-0.213,0.2-0.264c2.427-1.161,5.336-0.66,7.239,1.243
	c1.698,1.698,2.292,4.224,1.542,6.494l10.206,10.205c2.271-0.752,4.796-0.156,6.493,1.542c1.902,1.903,2.402,4.812,1.243,7.24
	c-0.051,0.105-0.149,0.18-0.265,0.199c-0.108,0.022-0.231-0.018-0.315-0.1l-4.002-4.002c-0.639-0.639-1.68-0.639-2.318,0
	c-0.64,0.64-0.64,1.68,0,2.318l4.002,4.002c0.082,0.083,0.12,0.2,0.1,0.315s-0.094,0.214-0.199,0.265
	C26.991,31.277,26.057,31.48,25.128,31.48z M8.968,12.146c0.094,0,0.186,0.037,0.254,0.105L19.75,22.775
	c0.1,0.1,0.132,0.248,0.083,0.38c-0.765,2.062-0.255,4.399,1.3,5.953c1.564,1.564,3.896,2.06,5.942,1.305l-3.624-3.624
	c-0.919-0.92-0.919-2.417,0-3.338c0.924-0.918,2.42-0.917,3.338,0l3.624,3.624c0.755-2.047,0.26-4.378-1.305-5.942
	c-1.554-1.555-3.889-2.065-5.953-1.3c-0.132,0.048-0.279,0.017-0.38-0.083L12.25,9.225c-0.1-0.099-0.132-0.248-0.083-0.38
	c0.766-2.062,0.255-4.399-1.299-5.954c-1.564-1.564-3.896-2.06-5.943-1.304l3.624,3.624C8.993,5.655,9.237,6.248,9.237,6.88
	S8.992,8.105,8.548,8.548c-0.888,0.889-2.45,0.888-3.337,0L1.587,4.925c-0.755,2.046-0.26,4.378,1.304,5.943
	c1.554,1.554,3.892,2.064,5.952,1.3C8.884,12.153,8.926,12.146,8.968,12.146z M2.858,31.24c-0.092,0-0.185-0.036-0.254-0.105
	l-1.743-1.743c-0.136-0.136-0.141-0.354-0.012-0.497l2.936-3.229c0.066-0.073,0.159-0.115,0.258-0.118
	c0.077,0,0.193,0.036,0.263,0.105l0.764,0.764l7.476-7.477l0.509,0.51l-7.476,7.477l0.763,0.763c0.07,0.07,0.108,0.165,0.105,0.264
	s-0.045,0.191-0.118,0.258L3.1,31.148C3.032,31.209,2.945,31.24,2.858,31.24z M1.613,29.125l1.257,1.258l2.695-2.451L4.063,26.43
	L1.613,29.125z M21.361,14.518l-0.51-0.509l9.311-9.311c0.384-0.383,0.595-0.892,0.595-1.433s-0.211-1.05-0.595-1.433
	c-0.788-0.788-2.074-0.79-2.864,0l-9.311,9.311l-0.51-0.509l9.311-9.311c1.038-1.038,2.848-1.036,3.884,0
	c0.519,0.519,0.805,1.208,0.805,1.942s-0.286,1.423-0.805,1.942L21.361,14.518z M19.674,12.831l-0.51-0.509l9.282-9.282l0.51,0.509
	L19.674,12.831z"
    />
</symbol>

<symbol id="user" viewBox="0 0 24 24">
<circle fill="none" cx="12" cy="7" r="3"/><path d="M12 2C9.243 2 7 4.243 7 7s2.243 5 5 5 5-2.243 5-5-2.243-5-5-5zm0 8c-1.654 0-3-1.346-3-3s1.346-3 3-3 3 1.346 3 3-1.346 3-3 3zm9 11v-1c0-3.859-3.141-7-7-7h-4c-3.86 0-7 3.141-7 7v1h2v-1c0-2.757 2.243-5 5-5h4c2.757 0 5 2.243 5 5v1h2z"/>
</symbol>
<symbol id="female" viewBox="0 0 32 32">
    <path d="M30.001 25.084l-8.703-4.127c1.161-0.582 5.695-0.767 6.070-1.79 0 0-1.792-2.75-2.229-6.323-0.17-1.386-0.461-3.206-0.75-5.769-0.469-4.157-3.965-7.075-8.381-7.075h-0.016c-4.416 0-7.912 2.919-8.38 7.075-0.289 2.563-0.58 4.382-0.75 5.769-0.438 3.573-2.229 6.323-2.229 6.323 0.375 1.023 4.909 1.208 6.071 1.79l-8.704 4.128s-1.999 0.702-1.999 2.358v2.642c0 1.105 0.894 1.916 1.999 1.916h28.002c1.105 0 1.999-0.811 1.999-1.916v-2.642c0-1.657-1.999-2.358-1.999-2.358zM2 30v-2.558c0-0.107 0.378-0.363 0.685-0.48 0.067-0.023 0.107-0.042 0.17-0.072l8.703-4.127c0.691-0.327 1.135-1.021 1.144-1.786s-0.42-1.468-1.104-1.81c-0.678-0.34-1.573-0.508-2.976-0.751-0.333-0.058-0.788-0.14-1.229-0.229 0.572-1.285 1.205-3.081 1.454-5.114 0.062-0.506 0.14-1.075 0.229-1.706 0.152-1.073 0.339-2.434 0.524-4.069 0.349-3.090 2.977-5.299 6.393-5.299h0.016c3.416 0 6.045 2.209 6.393 5.299 0.184 1.635 0.372 2.997 0.523 4.069 0.088 0.63 0.167 1.2 0.229 1.706 0.249 2.032 0.882 3.829 1.454 5.114-0.442 0.088-0.896 0.17-1.23 0.229-1.404 0.243-2.299 0.411-2.977 0.751-0.683 0.343-1.111 1.046-1.104 1.811 0.009 0.764 0.452 1.459 1.143 1.786l8.703 4.127c0.063 0.030 0.104 0.049 0.17 0.072 0.308 0.117 0.64 0.373 0.686 0.48l0.001 2.557h-28.001z"></path>
</symbol>
<symbol id="man" viewBox="0 0 32 32">
<path d="M15.992 2c3.396 0 6.998 2.86 6.998 4.995v4.997c0 1.924-0.8 5.604-2.945 7.293-0.547 0.43-0.831 1.115-0.749 1.807 0.082 0.692 0.518 1.291 1.151 1.582l8.703 4.127c0.068 0.031 0.834 0.16 0.834 1.23l0.001 1.952-27.984 0.002v-2.029c0-0.795 0.596-1.045 0.835-1.154l8.782-4.145c0.63-0.289 1.065-0.885 1.149-1.573s-0.193-1.37-0.733-1.803c-2.078-1.668-3.046-5.335-3.046-7.287v-4.997c0.001-2.089 3.638-4.995 7.004-4.995zM15.992-0c-4.416 0-9.004 3.686-9.004 6.996v4.997c0 2.184 0.997 6.601 3.793 8.847l-8.783 4.145s-1.998 0.89-1.998 1.999v3.001c0 1.105 0.895 1.999 1.998 1.999h27.986c1.105 0 1.999-0.895 1.999-1.999v-3.001c0-1.175-1.999-1.999-1.999-1.999l-8.703-4.127c2.77-2.18 3.708-6.464 3.708-8.865v-4.997c0-3.31-4.582-6.995-8.998-6.995v0z"></path>
</symbol>


<symbol id="login" viewBox="0 0 512 512">
<g>
	<g>
		<path d="M327.287,246.852l-74.931-76.595c-4.941-5.06-13.039-5.146-18.099-0.205c-5.06,4.941-5.146,13.056-0.205,18.099
			l53.854,55.057H12.8C5.734,243.2,0,248.934,0,256c0,7.066,5.734,12.8,12.8,12.8h275.098l-53.845,55.057
			c-4.941,5.043-4.855,13.158,0.205,18.099c5.06,4.941,13.158,4.855,18.099-0.205l75.128-76.8
			C332.424,259.908,332.339,251.793,327.287,246.852z"/>
	</g>
</g>
<g>
	<g>
		<path d="M499.2,0H166.4c-7.066,0-12.8,5.734-12.8,12.8V192h25.6V25.6h307.2v460.8H179.2V320h-25.6v179.2
			c0,7.066,5.734,12.8,12.8,12.8h332.8c7.066,0,12.8-5.734,12.8-12.8V12.8C512,5.734,506.266,0,499.2,0z"/>
	</g>
</g>
</symbol>




<symbol id="logout" viewBox="0 0 512 512">
<g>
	<g>
		<path d="M358.401,192V12.8c0-7.066-5.734-12.8-12.8-12.8h-332.8c-7.066,0-12.8,5.734-12.8,12.8v486.4
			c0,7.066,5.734,12.8,12.8,12.8h332.8c7.066,0,12.8-5.734,12.8-12.8V320h-25.6v166.4h-307.2V25.6h307.2V192H358.401z"/>
	</g>
</g>
<g>
	<g>
		<path d="M508.161,246.844l-74.931-76.595c-4.941-5.06-13.047-5.146-18.099-0.205c-5.052,4.941-5.146,13.056-0.205,18.099
			l53.854,55.057H193.673c-7.066,0-12.8,5.734-12.8,12.8c0,7.066,5.734,12.8,12.8,12.8h275.098l-53.854,55.057
			c-4.941,5.043-4.847,13.158,0.205,18.099c5.06,4.941,13.158,4.855,18.099-0.205l75.128-76.8
			C513.289,259.9,513.204,251.785,508.161,246.844z"/>
	</g>
</g>
</symbol>


<symbol id="exit" viewBox="0 0 32 32" >
<path d="M30,31.36H19v-0.72h10.64V1.36H14.36V7h-0.72V1c0-0.199,0.161-0.36,0.36-0.36h16
	c0.199,0,0.36,0.161,0.36,0.36v30C30.36,31.199,30.199,31.36,30,31.36z M14.36,31h-0.72v-6.852l-2.76-2.773
	c-0.809-0.795-1.204-1.577-1.203-2.388c0.001-0.798,0.404-1.596,1.199-2.373l2.869-2.869c0.111-0.11,0.277-0.247,0.475-0.386h-4.072
	l-2.895,2.895l-0.509-0.509l3-3C9.813,12.678,9.904,12.64,10,12.64h6c0.67,0,1.312,0.25,1.762,0.686l2.384,2.314H25v0.72h-5
	c-0.094,0-0.184-0.036-0.251-0.102l-2.489-2.416c-0.316-0.307-0.775-0.483-1.26-0.483c-0.502,0-1.384,0.54-1.748,0.897l-2.87,2.87
	c-0.654,0.64-0.984,1.265-0.985,1.861c0,0.606,0.323,1.221,0.991,1.876l2.868,2.882c0.067,0.067,0.104,0.159,0.104,0.254
	C14.36,23.999,14.36,31,14.36,31z M8,26.36H2v-0.72h5.851l2.895-2.895l0.509,0.51l-3,3C8.187,26.322,8.096,26.36,8,26.36z
	 M19.5,12.36c-1.577,0-2.86-1.283-2.86-2.86s1.283-2.86,2.86-2.86s2.86,1.283,2.86,2.86S21.077,12.36,19.5,12.36z M19.5,7.36
	c-1.18,0-2.14,0.96-2.14,2.14s0.96,2.14,2.14,2.14s2.14-0.96,2.14-2.14S20.68,7.36,19.5,7.36z"/>
</symbol>

<symbol id="edit" viewBox="0 0 30 30">
<path d="M6.494 13.994c-.45 0-.67.547-.348.86l8 8c.188.186.488.195.686.02l9-8c.547-.44-.164-1.24-.664-.747l-8.648 7.685-7.666-7.666c-.095-.097-.224-.152-.36-.152zM14.5 2c.277 0 .5.223.5.5v18c0 .277-.223.5-.5.5s-.5-.223-.5-.5v-18c0-.277.223-.5.5-.5zM.5 22c-.276.004-.504.224-.5.5v4c0 .822.678 1.5 1.5 1.5h27c.822 0 1.5-.678 1.5-1.5v-4c.01-.66-1-.657-1 0v4c0 .286-.214.5-.5.5h-27c-.286 0-.5-.214-.5-.5v-4c.004-.282-.218-.504-.5-.5z"/>
</symbol>

<symbol id="save" viewBox="0 0 32 32">
<path d="M27.845 7.385l-5.384-5.384h-11.845v4.307h-6.461v23.69h17.229v-4.307h6.461v-18.306zM22.461 3.524l3.861 3.861h-3.861v-3.861zM5.232 28.922v-21.537h9.692v5.384h5.384v16.153h-15.076zM16 7.831l3.861 3.861h-3.861v-3.861zM21.384 24.615v-12.922l-5.384-5.384h-4.307v-3.231h9.692v5.384h5.384v16.153h-5.384z">
</path>
</symbol>

<symbol id="copy" viewBox="0 0 59.985 59.985">
<path d="M59.985,7c0-1.87-0.728-3.627-2.05-4.949S54.855,0,52.985,0s-3.627,0.729-4.95,2.051l-1.414,1.414l-4.243,4.242l0,0
	L4.536,45.551c-0.11,0.109-0.192,0.243-0.242,0.391L0.051,58.669c-0.12,0.359-0.026,0.756,0.242,1.023
	c0.19,0.19,0.446,0.293,0.707,0.293c0.106,0,0.212-0.017,0.316-0.052l12.728-4.243c0.147-0.049,0.281-0.132,0.391-0.241
	l37.843-37.843l0,0l4.242-4.242l0,0l1.415-1.415C59.257,10.627,59.985,8.87,59.985,7z M52.278,14.778l-7.071-7.071l1.414-1.414
	l7.071,7.071L52.278,14.778z M5.68,48.109l6.197,6.196l-9.296,3.099L5.68,48.109z M13.728,53.328l-7.071-7.07L43.793,9.121
	l7.071,7.071L13.728,53.328z M55.106,11.95l-7.071-7.071l1.414-1.414C50.394,2.521,51.65,2,52.985,2s2.591,0.521,3.536,1.465
	s1.464,2.2,1.464,3.535s-0.52,2.591-1.464,3.535L55.106,11.95z"/>
</symbol>

<symbol id="bag" viewBox="0 0 32 32">
    <path d="M27 4.96h-5.975v-1.918c0-1.655-1.346-3-3-3h-3.989c-1.655 0-3 1.345-3 3v1.918h-6.037c-1.104 0-2 0.896-2 2v22.999c0 1.105 0.896 2 2 2h22c1.105 0 2-0.895 2-2v-22.999c0-1.104-0.895-2-2-2h0zM13.037 3.042c0-0.552 0.448-1 1-1h3.989c0.552 0 1 0.448 1 1v1.918h-5.989v-1.918zM27 29.959h-22v-22.999h6.037v2.058s-0.027 0.999 0.994 0.999c1.125 0 1.006-0.999 1.006-0.999v-2.058h5.989v2.058s-0.067 1.004 0.996 1.004c1 0 1.004-1.004 1.004-1.004v-2.058h5.974v22.999z"></path>
</symbol>

<symbol id="add1" viewBox="0 0 1920 1920">
    <path d="M840 0v840H0v240h840v840h240v-840h840V840h-840V0z" />
</symbol>

<symbol id="add2" viewBox="0 0 1920 1920">
     <path d="M903.53 0v903.53H0v112.94h903.53V1920h112.94v-903.53H1920V903.53h-903.53V0z" />
</symbol>

<symbol id="smiley-neutra" viewBox="0 0 24 24">
<path d="M12 23.25C18.2132 23.25 23.25 18.2132 23.25 12C23.25 5.7868 18.2132 0.75 12 0.75C5.7868 0.75 0.75 5.7868 0.75 12C0.75 18.2132 5.7868 23.25 12 23.25Z" stroke="#71717A" stroke-width="1.5" stroke-linecap="round" stroke-linejoin="round"/>
<path d="M7.5 15.75H16.5" stroke="#71717A" stroke-width="1.5" stroke-linecap="round" stroke-linejoin="round"/>
<path d="M18.7498 9C18.5948 9.4388 18.3075 9.81874 17.9276 10.0875C17.5476 10.3562 17.0937 10.5005 16.6283 10.5005C16.163 10.5005 15.709 10.3562 15.3291 10.0875C14.9491 9.81874 14.6619 9.4388 14.5068 9" stroke="#71717A" stroke-width="1.5" stroke-linecap="round" stroke-linejoin="round"/>
<path d="M9.493 9C9.33798 9.4388 9.05071 9.81874 8.67076 10.0875C8.29081 10.3562 7.83688 10.5005 7.3715 10.5005C6.90612 10.5005 6.45219 10.3562 6.07224 10.0875C5.69229 9.81874 5.40502 9.4388 5.25 9" stroke="#71717A" stroke-width="1.5" stroke-linecap="round" stroke-linejoin="round"/>
<path d="M14.5176 9.02963C14.6749 9.4559 14.9577 9.82481 15.3291 10.0875C15.7091 10.3562 16.163 10.5005 16.6284 10.5005C17.0938 10.5005 17.5477 10.3562 17.9276 10.0875C18.299 9.82481 18.5818 9.4559 18.7392 9.02963" stroke="#71717A" stroke-width="1.5" stroke-linecap="round" stroke-linejoin="round"/>
<path d="M5.26709 9.0463C5.4256 9.46551 5.70588 9.82823 6.0724 10.0875C6.45235 10.3562 6.90628 10.5005 7.37166 10.5005C7.83704 10.5005 8.29097 10.3562 8.67092 10.0875C9.03744 9.82823 9.31772 9.46551 9.47623 9.0463" stroke="#71717A" stroke-width="1.5" stroke-linecap="round" stroke-linejoin="round"/>
</symbol>

<symbol id="smiley-good" viewBox="0 0 24 24">
<path d="M12 23.25C18.2132 23.25 23.25 18.2132 23.25 12C23.25 5.7868 18.2132 0.75 12 0.75C5.7868 0.75 0.75 5.7868 0.75 12C0.75 18.2132 5.7868 23.25 12 23.25Z" stroke="#71717A" stroke-width="1.5" stroke-linecap="round" stroke-linejoin="round"/>
<path d="M18.75 10.5005C18.595 10.0617 18.3077 9.68178 17.9278 9.41305C17.5478 9.14432 17.0939 9.00001 16.6285 9.00001C16.1631 9.00001 15.7092 9.14432 15.3292 9.41305C14.9551 9.67765 14.6709 10.0501 14.5142 10.4803" stroke="#71717A" stroke-width="1.5" stroke-linecap="round" stroke-linejoin="round"/>
<path d="M5.25018 10.5005C5.4052 10.0617 5.69247 9.68178 6.07242 9.41305C6.45237 9.14432 6.9063 9.00001 7.37168 9.00001C7.83706 9.00001 8.29099 9.14432 8.67094 9.41305C9.03808 9.67272 9.31868 10.0362 9.47705 10.4563" stroke="#71717A" stroke-width="1.5" stroke-linecap="round" stroke-linejoin="round"/>
<path d="M5.94824 15C6.50681 16.1273 7.3692 17.076 8.43818 17.7394C9.50715 18.4027 10.7402 18.7542 11.9982 18.7542C13.2563 18.7542 14.4893 18.4027 15.5583 17.7394C16.6202 17.0804 17.4782 16.1399 18.0371 15.0224" stroke="#71717A" stroke-width="1.5" stroke-linecap="round" stroke-linejoin="round"/>
</symbol>

<symbol id="smiley-sad" viewBox="0 0 24 24">
<path d="M12 23.25C18.2132 23.25 23.25 18.2132 23.25 12C23.25 5.7868 18.2132 0.75 12 0.75C5.7868 0.75 0.75 5.7868 0.75 12C0.75 18.2132 5.7868 23.25 12 23.25Z" stroke="#71717A" stroke-width="1.5" stroke-linecap="round" stroke-linejoin="round"/>
<path d="M14.5176 9.02881C14.6749 9.45542 14.9578 9.82463 15.3294 10.0875C15.7094 10.3562 16.1633 10.5005 16.6287 10.5005C17.0941 10.5005 17.548 10.3562 17.9279 10.0875C18.2995 9.82463 18.5825 9.45542 18.7398 9.02881" stroke="#71717A" stroke-width="1.5" stroke-linecap="round" stroke-linejoin="round"/>
<path d="M5.26123 9.03113C5.41868 9.45676 5.70128 9.82511 6.07222 10.0875C6.45216 10.3562 6.90609 10.5005 7.37147 10.5005C7.83685 10.5005 8.29078 10.3562 8.67073 10.0875C9.04167 9.82511 9.32427 9.45676 9.48172 9.03113" stroke="#71717A" stroke-width="1.5" stroke-linecap="round" stroke-linejoin="round"/>
<path d="M5.98779 17.676C6.54712 16.583 7.39418 15.6627 8.43834 15.0148C9.50731 14.3515 10.7403 14 11.9984 14C13.2565 14 14.4895 14.3515 15.5585 15.0148C16.6026 15.6627 17.4497 16.583 18.009 17.676" stroke="#71717A" stroke-width="1.5" stroke-linecap="round" stroke-linejoin="round"/>
</symbol>

<symbol id="sandals" viewBox="0 0 353.596 353.596">
<path d="M335.785,165.567c2.039-14.368,3.505-32.009,4.107-42.834c0.419-7.546,3.087-74.472-31.819-100.428
		C289.01,8.129,266.868,0,247.324,0c-9.999,0-18.613,2.165-24.914,6.259c-7.858,5.108-14.196,14.681-18.328,27.684
		c-3.151,9.917-4.958,21.623-4.958,32.119c0,15.066,7.628,63.405,14.64,87.67l-9.109,13.813
		c-12.037,18.254-8.643,42.806,7.895,57.11l13.004,11.246c-0.409,4.073-0.97,8.185-1.719,12.308
		c-0.26,1.432-0.538,2.926-0.826,4.476c-4.638,24.96-11.646,62.682,6.545,84.565c9.015,10.845,23.179,16.344,42.1,16.345
		c0.003,0,0.005,0,0.008,0c3.338,0,9.163-0.237,10.78-0.54c0.454-0.085,11.315-1.805,22.444-9.049
		c10.404-6.773,22.992-19.773,23.878-43.253c0.524-13.893,0.88-30.571,1.225-46.7c0.183-8.565,0.368-17.203,0.578-25.453
		l6.777-9.198C349.256,203.237,348.513,180.9,335.785,165.567z M207.124,66.062c0-16.209,5.232-43.726,19.646-53.095
		C231.77,9.718,238.877,8,247.324,8c17.861,0,38.264,7.554,55.975,20.724c32.092,23.864,28.762,90.73,28.605,93.565
		c-0.484,8.716-1.612,22.745-3.163,35.442l-63.518-70.089l0.732-19.041c0.085-2.207-1.636-4.066-3.843-4.151
		c-2.192-0.069-4.065,1.636-4.151,3.843l-0.752,19.555l-37.55,56.944C213.612,120.656,207.124,80.295,207.124,66.062z
		 M217.784,218.604c-13.511-11.686-16.284-31.743-6.45-46.655l5.708-8.655c4.953,11.714,10.303,35.69,9.213,62.636L217.784,218.604z
		 M321.991,253.883c-0.344,16.097-0.699,32.742-1.221,46.569c-1.419,37.612-36.805,44.239-39.439,44.679
		c-3.364,0.309-6.616,0.465-9.667,0.465c-0.002,0-0.005,0-0.008,0c-16.431-0.001-28.526-4.529-35.949-13.459
		c-15.792-18.998-9.197-54.499-4.832-77.99c0.29-1.56,0.569-3.065,0.832-4.507c0.45-2.476,0.833-4.948,1.162-7.413l12.162,10.519
		c1.671,1.446,4.197,1.261,5.642-0.409c1.445-1.671,1.262-4.197-0.409-5.642l-16.387-14.173c2.323-31.026-3.917-59.405-9.584-72.628
		c-0.57-1.329-1.166-2.982-1.78-4.895l39.152-59.372l65.659,72.452c-0.533,3.422-1.097,6.556-1.689,9.218
		c-1.596,7.179-2.401,25.906-2.999,48.585l-16.987,23.055c-1.31,1.778-0.931,4.282,0.848,5.593c0.714,0.526,1.545,0.78,2.369,0.78
		c1.228,0,2.44-0.564,3.224-1.628l10.21-13.856C322.193,244.44,322.092,249.142,321.991,253.883z M333.442,179.032
		c0.14-0.63,0.278-1.29,0.414-1.964c6.083,11.799,5.228,26.408-2.887,37.496C331.516,197.869,332.255,184.376,333.442,179.032z"/>
	<path d="M16.251,219.403l6.777,9.198c0.21,8.249,0.395,16.888,0.578,25.453c0.345,16.129,0.701,32.807,1.225,46.7
		c0.886,23.479,13.474,36.48,23.878,43.253c11.128,7.244,21.99,8.964,22.444,9.049c1.617,0.303,7.442,0.54,10.78,0.54
		c0.003,0,0.005,0,0.008,0c18.921-0.001,33.085-5.5,42.1-16.345c18.191-21.884,11.183-59.605,6.545-84.565
		c-0.288-1.55-0.565-3.045-0.826-4.476c-0.75-4.123-1.311-8.235-1.719-12.308l13.004-11.246
		c16.538-14.304,19.933-38.855,7.896-57.11l-9.109-13.813c7.013-24.265,14.64-72.604,14.64-87.67
		c0-10.496-1.807-22.203-4.958-32.119c-4.132-13.003-10.47-22.575-18.328-27.684C124.885,2.165,116.271,0,106.272,0
		C86.728,0,64.585,8.129,45.523,22.304c-34.906,25.957-32.238,92.882-31.819,100.428c0.601,10.825,2.067,28.467,4.107,42.834
		C5.082,180.9,4.339,203.237,16.251,219.403z M133.937,144.793l-37.55-56.944l-0.752-19.555c-0.085-2.207-1.958-3.912-4.151-3.843
		c-2.208,0.085-3.928,1.943-3.843,4.151l0.732,19.041l-63.518,70.089c-1.551-12.698-2.679-26.727-3.163-35.442
		c-0.157-2.835-3.487-69.701,28.605-93.565C68.008,15.554,88.411,8,106.272,8c8.447,0,15.554,1.718,20.554,4.967
		c14.414,9.37,19.646,36.886,19.646,53.095C146.472,80.295,139.983,120.656,133.937,144.793z M127.341,225.93
		c-1.09-26.946,4.26-50.922,9.213-62.636l5.708,8.655c9.833,14.912,7.06,34.969-6.45,46.655L127.341,225.93z M31.299,239.826
		l10.21,13.856c0.784,1.064,1.996,1.628,3.224,1.628c0.824,0,1.655-0.254,2.369-0.78c1.779-1.311,2.158-3.814,0.848-5.593
		l-16.987-23.055c-0.598-22.68-1.404-41.406-2.999-48.585c-0.592-2.663-1.157-5.796-1.689-9.218l65.659-72.452l39.151,59.372
		c-0.614,1.912-1.211,3.565-1.78,4.895c-5.667,13.223-11.907,41.602-9.584,72.628l-16.387,14.173
		c-1.671,1.445-1.854,3.971-0.409,5.642c1.445,1.67,3.971,1.855,5.642,0.409l12.162-10.519c0.329,2.465,0.712,4.938,1.162,7.413
		c0.262,1.442,0.542,2.947,0.832,4.507c4.365,23.491,10.96,58.992-4.832,77.99c-7.423,8.93-19.518,13.458-35.949,13.459
		c-0.002,0-0.005,0-0.008,0c-3.052,0-6.304-0.156-9.668-0.465c-2.634-0.44-38.021-7.066-39.439-44.679
		c-0.522-13.828-0.877-30.472-1.221-46.569C31.504,249.142,31.403,244.44,31.299,239.826z M22.625,214.564
		c-8.115-11.088-8.97-25.697-2.887-37.496c0.137,0.674,0.274,1.334,0.414,1.964C21.341,184.376,22.079,197.869,22.625,214.564z"/></symbol>

<symbol id="vvv" viewBox="0 0 188.415 188.416">
	<path d="M91.51,9.603c0.009-0.914-0.042-1.839-0.062-2.744c0.022-1.464-0.706-2.774-1.796-3.636
		c-0.79-0.638-1.777-1.038-2.878-1.038c-1.099,0-2.084,0.398-2.873,1.034c-1.093,0.862-1.823,2.174-1.802,3.641
		c-0.025,1.159-0.12,2.35-0.04,3.507C39.406,15.564,0.169,44.015,0,94.032c-0.01,2.977,2.403,4.084,4.555,3.594
		c0.796,0.678,2.101,0.888,3.036,0.098c6.035-5.098,12.69-7.593,20.611-7.385c8.313,0.219,13.45,6.253,20.637,8.991
		c1.659,0.631,2.923-0.256,3.538-1.547c10.841-10.112,25.027-15.532,38.101-10.287c-0.47,0.561-0.776,1.274-0.714,2.174
		c0.825,12.125-1.772,23.855-2.172,35.886c-0.064,1.915,1.117,4.076,2.844,4.959c2.133,1.09,3.658,1.018,5.797,0
		c1.839-0.876,2.761-3.049,2.844-4.959c0.494-11.37,0.37-23.003-1.816-34.22c0.593,0.435,1.189,0.848,1.774,1.336
		c0.927,0.775,1.938,1.078,2.904,1.067c1.189,1.321,3.531,1.606,4.909-0.353c4.796-6.82,11.528-10.599,19.884-8.799
		c7.796,1.679,10.027,8.416,14.438,13.928c0.566,0.708,1.24,0.993,1.922,1.027c0.819,1.693,3.098,2.68,4.642,0.927
		c8.574-9.734,18.421-14.169,31.164-10.809c3.244,2.648,9.937,0.72,9.496-4.354C183.782,32.272,137.197,7.722,91.51,9.603z
		 M28.203,82.503c-7.627-0.398-14.618,2.768-19.902,7.883c5.421-34.93,29.781-58.95,62.072-67.14
		C54.706,40.62,42.959,62.652,42.781,85.88C38.102,83.751,32.704,82.737,28.203,82.503z M50.214,91.151
		c-0.692-0.792-1.477-1.51-2.315-2.179C49.23,74.4,53.305,61.797,61.132,48.934c5.994-9.851,14.336-17.975,20.941-27.317
		c6.692,19.318,11.81,38.21,13.394,58.483C80.378,73.168,61.967,78.856,50.214,91.151z M127.438,76.007
		c-9.423-1.98-17.82,2.77-23.156,9.992c-1.346-1.255-2.763-2.317-4.208-3.294c2.249-21.472-3.479-42.203-10.668-62.4
		c0.487-0.029,0.967-0.074,1.456-0.096c0.064-0.003,0.126,0.001,0.19-0.001c10.829,8.969,22.49,15.904,32.175,26.393
		c9.942,10.768,15.627,23.7,18.792,37.554C138.089,79.988,132.381,77.045,127.438,76.007z M147.521,90.699
		c0.699-26.958-16.14-55.35-39.646-69.75c33.044,4.24,59.265,25.367,67.812,58.539C164.816,78.096,154.619,82.463,147.521,90.699z"
		/>
	<path d="M153.67,171.104c-0.581-0.582-1.315-0.919-2.089-1.115c-0.314-0.421-0.631-0.84-0.929-1.27
		c-0.082-0.118-0.198-0.183-0.29-0.286c1.541-0.684,3.049-1.419,4.494-2.249c4.43-2.546,2.649-10.038-2.656-9.806
		c-10.658,0.467-20.926,3.254-31.663,3.601c-11.642,0.377-23.147-1.952-34.341-4.887c-24.584-6.444-46.25-19.614-69.248-29.833
		c-5.066-2.251-8.62,4.007-4.287,7.334c5.782,4.439,11.867,8.537,18.147,12.352c-1.773,1.898-3.214,4.369-4.593,6.26
		c-0.473,0.647-0.931,1.308-1.401,1.957c-3.974,4.519-7.434,9.688-10.15,14.57c-3.302,5.936,5.27,10.788,9.004,5.264
		c3.331-4.929,6.8-9.765,10.307-14.568c1.691-2.316,4.582-5.161,6.062-8.192c13.591,7.362,27.974,13.347,42.594,17.788
		c18.183,5.523,42.585,8.676,61.963,2.561c0.032,0.217,0.02,0.416,0.103,0.647c0.24,0.671,0.505,1.334,0.775,1.996
		c-0.091,0.412-0.148,0.842-0.101,1.315c0.28,2.764,1.227,5.396,1.926,8.078c1.438,5.51,10.217,4.436,9.987-1.352
		c-0.057-1.452-0.292-2.883-0.839-4.148C155.909,174.899,155.197,172.635,153.67,171.104z"/>
	<g>
		<path d="M48.048,120.13C48.306,120.281,48.297,120.233,48.048,120.13L48.048,120.13z"/>
		<path d="M53.036,112.478c-3.393-6.592-14.254-6.016-19.656-2.798c-0.979,0.583-1.17,1.769-0.785,2.68
			c-2.112,1.962-3.795,4.22-3.984,7.332c-0.3,4.931,5.048,8.326,8.692,10.419c2.62,1.504,5.052,2.99,8.15,2.137
			c2.502-0.69,4.385-2.699,5.85-4.729C54.316,123.339,55.444,117.156,53.036,112.478z"/>
	</g>
	<path d="M147.838,133.794c-12.58,1.662-25.12,3.392-37.821,3.707c-16.997,0.422-31.971-5.469-47.136-12.473
		c-4.292-1.982-9.806,3.719-5.47,7.09c27.686,21.523,59.285,18.014,92.032,13.534C156.158,144.733,154.567,132.904,147.838,133.794z
		"/>
</symbol>


<symbol id="calendar" viewBox="0 0 512 512">
<rect
      fill="none"
      stroke="currentColor"
      stroke-linejoin="round"
      stroke-width="32"
      x="48"
      y="80"
      width="416"
      height="384"
      rx="48"
    /><circle cx="296" cy="232" r="24" /><circle
      cx="376"
      cy="232"
      r="24"
    /><circle cx="296" cy="312" r="24" /><circle
      cx="376"
      cy="312"
      r="24"
    /><circle cx="136" cy="312" r="24" /><circle
      cx="216"
      cy="312"
      r="24"
    /><circle cx="136" cy="392" r="24" /><circle
      cx="216"
      cy="392"
      r="24"
    /><circle cx="296" cy="392" r="24" /><path
      fill="none"
      stroke="currentColor"
      stroke-linejoin="round"
      stroke-width="32"
      stroke-linecap="round"
      d="M128 48v32M384 48v32"
    /><path
      fill="none"
      stroke="currentColor"
      stroke-linejoin="round"
      stroke-width="32"
      d="M464 160H48"
    /></symbol>

<!-- дві кульки у формі серця -->
<symbol id="birthday" viewBox="0 0 512 512">
	<rect x="188.591" y="345.249" class="st0" width="14.5" height="166.751" />
	<rect x="304.591" y="374.249" class="st0" width="14.5" height="137.751" />
	<path
      class="st0"
      d="M221.619,155.247c-1.352-5.551-2.152-10.514-2.464-14.876c-0.312-4.396-0.135-8.17,0.46-11.285
		c0.835-4.496-2.131-8.829-6.634-9.672c-4.496-0.842-8.828,2.131-9.657,6.62c-0.892,4.821-1.104,9.982-0.708,15.512
		c0.383,5.494,1.374,11.328,2.889,17.616c2.846,11.718,8.609,22.062,16.044,31.054c2.916,3.512,8.142,4.029,11.661,1.111
		c3.533-2.924,4.022-8.149,1.125-11.682C228.182,172.196,223.771,164.118,221.619,155.247z"
    />
	<path
      class="st0"
      d="M224.061,102.252c5.877,0,10.634-4.758,10.634-10.634c0-5.883-4.758-10.642-10.634-10.642
		c-5.884,0-10.641,4.758-10.641,10.642C213.421,97.494,218.178,102.252,224.061,102.252z"
    />
	<path
      class="st0"
      d="M454.98,51.862c-16.964-18.854-40.385-27.917-64.309-27.839h-1.961c-15.512,0.212-28.781,4.347-39.798,10.584
		c-16.751-24.002-42.268-35.167-69.165-34.586c-25.085,0.439-42.998,11.166-56.259,24.724c-13.197,1.67-25.955,6.237-37.198,13.92
		c-13.99-19.428-34.509-38.063-67.785-38.644C71.959-0.92,29.761,32.866,29.761,107.54c0,73.662,63.296,125.864,102.372,152.471
		c15.732,10.804,34.006,19.867,45.752,25.156c-5.876,10.734-12.688,22.982-14.649,26.246c-3.625,6.018-1.232,14.5,4.786,14.5h56.33
		c6.018,0,8.482-8.482,4.857-14.5c-1.884-3.044-7.901-13.99-13.551-24.144c4.488-1.954,10.655-4.786,17.686-8.34
		c3.845,2.833,7.541,5.367,11.024,7.76c14.422,9.862,29.142,18.054,39.798,23.343c-1.522,3.193-2.967,6.386-4.277,9.431
		c-1.373,2.966-2.605,5.799-3.554,7.972c-0.502,1.09-0.942,2.032-1.303,2.684c-0.29,0.722-0.581,1.232-0.581,1.232
		c-2.102,3.484-2.973,7.18-2.973,10.734c0,3.838,0.948,7.682,3.484,11.158c1.302,1.742,2.973,3.413,5.147,4.574
		c2.174,1.154,4.716,1.812,7.25,1.812h51.331c2.535,0,5.076-0.658,7.25-1.812c3.264-1.812,5.438-4.496,6.74-7.25
		c1.31-2.683,1.883-5.586,1.883-8.482c0-3.554-0.941-7.25-2.966-10.734c0,0-0.291-0.51-0.581-1.232
		c-1.232-2.535-3.412-7.54-5.877-12.978c-1.012-2.323-2.174-4.716-3.264-7.109c10.663-5.289,25.305-13.481,39.805-23.343
		c18.776-12.758,43.57-31.826,64.018-57.059c20.376-25.156,36.54-56.91,36.54-94.541C482.239,98.698,472.015,70.71,454.98,51.862z
		 M106.977,181.053c-4.786,3.413-11.455,2.323-14.861-2.464c-8.702-12.178-15.158-25.956-17.693-41.248
		c-1.374-8.122-2.102-15.733-2.102-22.77c0-7.101,0.729-13.7,2.322-19.789c1.452-5.657,7.32-9.063,12.978-7.611
		c5.65,1.522,9.063,7.321,7.611,12.978c-1.012,3.986-1.593,8.772-1.593,14.422c0,5.586,0.502,12.037,1.734,19.287
		c1.962,11.526,6.889,22.26,14.069,32.334C112.847,170.978,111.764,177.648,106.977,181.053z M121.407,53.816
		c-3.335,2.032-5.806,4.136-7.618,6.38c-3.766,4.574-10.436,5.296-15.003,1.522c-4.566-3.696-5.225-10.365-1.522-14.932
		c3.547-4.347,7.972-8.121,13.12-11.165c5.006-3.044,11.526-1.452,14.57,3.625C127.998,44.251,126.405,50.772,121.407,53.816z
		 M430.257,217.162c-18.486,22.912-41.83,40.966-59.813,53.144c-9.062,6.16-18.416,11.817-26.607,16.313
		c-8.192,4.496-15.152,7.831-19.287,9.643c-2.613,1.161-4.567,3.264-5.508,5.947c-0.871,2.606-0.651,5.509,0.722,7.972
		c2.613,4.716,5.657,11.385,8.27,17.325c1.303,2.974,2.534,5.728,3.625,8.122c0.502,1.161,1.012,2.251,1.444,3.193l0.51,0.942
		h-41.249l0.503-0.942c1.67-3.335,3.774-8.269,6.167-13.558c2.315-5.296,4.998-10.946,7.25-15.081
		c1.373-2.463,1.593-5.366,0.722-7.972c-0.942-2.683-2.903-4.786-5.508-5.947c-8.27-3.555-27.917-13.558-45.894-25.956h-0.07
		c-0.871-0.581-1.742-1.232-2.684-1.884c-17.544-12.107-39.514-29.51-57.058-51.26c-18.564-22.982-32.193-50.389-32.193-82.073
		c0.078-32.838,9.14-55.458,22.189-69.888c13.049-14.43,30.452-21.319,49.518-21.389l1.664,0.07
		c14.72,0.291,25.814,4.574,35.238,11.024c9.282,6.45,16.744,15.152,22.982,24.285c1.884,2.903,4.347,5.367,7.321,7.18
		c2.902,1.883,6.378,3.115,10.223,3.193h0.51c3.838-0.078,7.392-1.31,10.294-3.193c2.974-1.813,5.438-4.277,7.321-7.18
		c6.238-9.133,13.63-17.834,22.982-24.285c1.452-1.012,2.974-1.961,4.567-2.824c8.412-4.864,18.196-7.98,30.671-8.199l1.593-0.07
		c19.067,0.07,36.541,6.96,49.59,21.389c13.048,14.429,22.111,37.05,22.111,69.888C462.372,166.773,448.813,194.18,430.257,217.162z
		"
    />

</symbol>

<symbol id="back" viewBox="0 0 512 512">
<path d="M413,99a221.83,221.83,0,0,0-313-.76V49H70v105H175V124h-58.4A191.8,191.8,0,0,1,256,63.92c105.91,0,192.08,86.17,192.08,192.08S361.91,448.08,256,448.08,63.92,361.91,63.92,256H34A222,222,0,0,0,413,413a222,222,0,0,0,0-314Z"/>
</symbol>

<symbol id="lock-unlocked" viewBox="0 0 1024 1024">
<path d="M371.3 260v252h-56V260c0-108.1 87.9-195.9 195.9-195.9 108.2 0 195.9 87.7 195.9 195.9v84.1s0 28-28 28-28-28-28-28V260c0-77.2-62.7-139.9-140-139.9-77 0.1-139.8 62.8-139.8 139.9zM231.4 596.2c0-46.4 37.5-84.1 83.8-84.1h392.2c46.3 0 83.8 37.7 83.8 84.1V736c0 123.7-100.3 223.9-223.9 223.9H455.2c-123.6 0-223.9-100.4-223.9-223.9l0.1-139.8z" fill="#5E676F" />
<path d="M287.3 596.2V736c0 92.6 75.3 168 167.9 168h112.1c92.7 0 167.9-75.2 167.9-168V596.2c0-15.6-12.5-28.2-27.9-28.2H315.2c-15.4 0-27.9 12.6-27.9 28.2z"/>
<path d="M511.3 819.9c-46.4 0-84-37.6-84-84s37.6-84 84-84 84 37.6 84 84-37.6 84-84 84z" fill="#5E676F" />
<path d="M511.3 792c30.9 0 56-25.1 56-56s-25.1-56-56-56-56 25.1-56 56 25.1 56 56 56z"/>
</symbol>

<symbol id="lamp" viewBox="0 0 1024 1024">
<path d="M434.2 878.1c15.4 16.9 38.5 22.9 82.6 24 57.9 1.4 75.4-8.5 92.5-48.5 2.8-6.5 5.5-13.6 8.2-21.5l-183.3 46zM377.6 707c2 7.4 4 15.4 6.1 24 0.7 2.8 7.7 32.1 10.8 44.3l256.7-64.5c0.4-1.3 0.7-2.6 1.1-3.9H377.6v0.1z m-18.3-55.9c-8-18-17.2-30.9-30-42.2-22.8-20.2-42-43.7-57-69.6h484.4c-14.5 25.1-33 48-54.9 67.8-12.8 11.6-22.2 25.1-30.6 44H359.3zM235 399.5c0-154.4 125.2-279.6 279.6-279.6s279.6 125.2 279.6 279.6c0 39.3-8.1 77.2-23.2 111.8H258.2c-15.1-34.7-23.2-72.6-23.2-111.8z m57.3 251.3c-69.4-61.5-113.2-151.3-113.2-251.3C179.1 214.2 329.3 64 514.6 64S850.1 214.2 850.1 399.5c0 98.8-42.7 187.7-110.7 249.1-32.6 29.5-46 151.1-78.6 227-26.8 62.4-66 84.2-145.2 82.3-77.3-1.8-120.4-21.3-147.2-80.8-34.1-75.5-43-197-76.1-226.3z" fill="#49535B" /><path d="M235 399.5c0-154.4 125.2-279.6 279.6-279.6s279.6 125.2 279.6 279.6c0 39.3-8.1 77.2-23.2 111.8H258.2c-15.1-34.7-23.2-72.6-23.2-111.8zM359.3 651.1c-8-18-17.2-30.9-30-42.2-22.8-20.2-42-43.7-57-69.6h484.4c-14.5 25.1-33 48-54.9 67.8-12.8 11.6-22.2 25.1-30.6 44H359.3zM418.8 853.1c-5.9-13.4-11.4-29.6-17.3-50.7L643 741.8c-3.1 11.8-7.3 28.4-8.8 34-2.4 9.1-4.7 17.4-6.9 25l-208.5 52.3z" fill="#FFFFFF" /><path d="M304.9 400.8c-14 0-13.4-20.6-12.2-30C305.6 270 385.6 190.2 486.4 177.6c7-0.9 29.4-1.7 29.4 12.2 0 14-31.5 16.3-31.5 16.3-83.8 13-150.1 79.3-163.1 163.1 0 0-2.4 31.6-16.3 31.6z" fill="#49535B" />
</symbol>

<symbol id="key" viewBox="0 0 1024 1024">
<path d="M691.8 91.1L933 332.3c16.2 16.2 28 44.5 28 67.4l0.1 112.7c0 23.6-13.4 52.1-31.6 67.4L802.3 686c-18.2 15.2-48.4 23.4-71.7 19.5l-59.2-9.9c-52.4-8.8-127.8 15.7-164.8 53.6l-199.4 204-8.3 8.5H287l-84-0.2h-11.6l-8.2-8.2-112.3-112.4-8.2-8.2v-11.6l-0.2-84v-11.5l8-8.2 199.1-204.3c36.5-37.4 56.8-112.3 44.2-162.9l-20.7-82.8c-6.3-25.4 3.9-56.8 24-73.6L444.3 87.6c17-14.2 45.4-24.5 67.4-24.5l112.7 0.1c22.7-0.1 51.3 11.8 67.4 27.9z" fill="#5E676F" /><path d="M118.8 801.2l242.9-242.9 19.8 19.8-252.7 252.8 64.4 64.4 252.7-252.7 19.8 19.8-242.8 242.9 64.3 0.2L466.4 710c49.9-51 143.7-81.6 214.2-69.7l59.2 9.9c7.1 1.2 20.8-2.5 26.4-7.3l127.2-106.2c5.5-4.6 11.5-17.4 11.5-24.2l-0.1-112.7c0-8-5.8-22-11.5-27.7L652.1 130.8c-5.6-5.6-19.9-11.5-27.7-11.5l-112.7-0.1c-8.8 0-24.5 5.7-31.4 11.5L353.1 236.9c-3.6 3-6.7 12.4-5.5 17l20.7 82.8c17.3 69.5-8.4 164.3-58.4 215.7L118.7 737l0.1 64.2z" fill="#FFFFFF" /><path d="M578.3 273.1c21.9-21.9 57.3-22.1 79.5 0.1l59.3 59.3c22 22 22.2 57.4 0.1 79.5-21.9 21.9-57.3 22.1-79.5-0.1l-59.3-59.3c-21.9-21.9-22.1-57.4-0.1-79.5z" fill="#5E676F" /><path d="M598.2 293c-11 11-11 28.7 0.1 39.8l59.3 59.3c11.2 11.2 28.8 11.2 39.8 0.1 11-11 11-28.7-0.1-39.8L638 293.1c-11.2-11.2-28.8-11.2-39.8-0.1z" fill="#FFFFFF" />
</symbol>

<symbol id="locked" viewBox="0 0 1024 1024">
<path d="M371.7 512.6V260.1C371.7 182.8 434.6 120 511.9 120c77.4 0 140.2 62.8 140.2 140.1v252.5h56.1V260.1c0-108.3-87.9-196.2-196.3-196.2-108.3 0-196.3 87.9-196.3 196.2v252.5h56.1zM231.4 596.9v140c0 123.7 100.5 224.3 224.3 224.3H568c123.8 0 224.3-100.5 224.3-224.3v-140c0-46.5-37.6-84.3-84-84.3H315.4c-46.4 0-84 37.8-84 84.3z" fill="#5E676F" />
<path d="M287.5 596.9c0-15.6 12.5-28.2 27.9-28.2h392.9c15.4 0 27.9 12.6 27.9 28.2v140c0 92.9-75.3 168.3-168.2 168.3H455.7c-92.8 0-168.2-75.5-168.2-168.3v-140z" />
<path d="M511.9 821.1c-46.5 0-84.1-37.7-84.1-84.1s37.7-84.1 84.1-84.1c46.5 0 84.1 37.7 84.1 84.1s-37.7 84.1-84.1 84.1z" fill="#5E676F" />
<path d="M511.9 793c31 0 56.1-25.1 56.1-56.1s-25.1-56.1-56.1-56.1-56.1 25.1-56.1 56.1 25.1 56.1 56.1 56.1z" />
</symbol>

<symbol id="logo" viewBox="0 0 15 15">
  <path d="M13.5,5c-0.0762,0.0003-0.1514-0.0168-0.22-0.05L7.5,2L1.72,4.93C1.4632,5.0515,1.1565,4.9418,1.035,4.685&#xA;&#x9;S1.0232,4.1215,1.28,4L7.5,0.92L13.72,4c0.2761,0.0608,0.4508,0.3339,0.39,0.61C14.0492,4.8861,13.7761,5.0608,13.5,5z M5,10H2v3h3&#xA;&#x9;V10z M9,10H6v3h3V10z M13,10h-3v3h3V10z M11,6H8v3h3V6z M7,6H4v3h3V6z"/>
</symbol>

<symbol id="logo2" viewBox="0 0 24 24">
<defs>
<style>.cls-1{fill:#4285f4;}.cls-1,.cls-2,.cls-4{fill-rule:evenodd;}.cls-2{fill:#1e88e5;}.cls-3,.cls-4{fill:#aecbfa;}.cls-5{fill:#669df6;}</style>
</defs>
<title>Icon_24px_AIHub_Color</title>
<g data-name="Product Icons">
<polygon class="cls-1" points="20.69 12.43 12 16.78 12 22 20.69 17.65 20.69 12.43"/>
<path class="cls-2" d="M6.78,4.61,3.31,6.35Z"/>
<polygon class="cls-1" points="17.22 8.09 17.22 8.09 17.22 12.43 20.69 10.7 20.69 6.35 17.22 8.09"/>
<polygon class="cls-1" points="12 15.04 15.48 13.31 15.48 8.96 15.48 8.96 12 10.7 12 15.04"/>
<polygon class="cls-3" points="6.78 4.61 3.31 6.35 6.78 8.09 10.26 6.35 6.78 4.61"/>
<polygon class="cls-4" points="12 2 8.52 3.74 12 5.48 17.22 8.09 20.69 6.35 12 2"/>
<polygon class="cls-3" points="12 7.22 8.52 8.96 12 10.7 15.48 8.96 12 7.22"/>
<path class="cls-5" d="M8.52,15v5.22L12,22V16.78Zm2.61,5.22-1.74-.87V16.78l1.74.87Z"/>
<path class="cls-5" d="M3.31,6.35v11.3l3.47,1.74V8.09Zm2.61,11.3-1.75-.87v-10l1.75.87Z"/>
<path class="cls-5" d="M8.52,9,12,10.7V15L8.52,13.31Zm2.61,4.35v-3L9.39,9.45v3Z"/>
</g>
</symbol>


</svg>

