<?xml version="1.0" standalone="no"?>
<!DOCTYPE svg PUBLIC "-//W3C//DTD SVG 20010904//EN"
 "http://www.w3.org/TR/2001/REC-SVG-20010904/DTD/svg10.dtd">
<svg version="1.0" xmlns="http://www.w3.org/2000/svg"
 width="1280.000000pt" height="905.000000pt" viewBox="0 0 1280.000000 905.000000"
 preserveAspectRatio="xMidYMid meet">
<metadata>
Created by potrace 1.15, written by Peter Selinger 2001-2017
</metadata>
<g transform="translate(0.000000,905.000000) scale(0.100000,-0.100000)"
fill="#000000" stroke="none">
<path d="M7880 9031 c0 -32 29 -159 56 -249 32 -103 74 -204 114 -273 17 -28
27 -49 23 -47 -4 2 -35 17 -68 34 -213 111 -611 173 -865 133 -152 -23 -306
-99 -373 -184 -123 -155 -130 -378 -17 -539 l41 -58 -93 -97 c-97 -102 -143
-169 -186 -273 -23 -54 -26 -78 -27 -168 0 -102 1 -108 37 -182 48 -97 149
-196 232 -227 64 -24 175 -44 208 -37 13 3 48 7 80 10 l56 6 -81 -213 c-64
-170 -87 -218 -113 -242 -17 -16 -54 -58 -82 -92 l-49 -61 -279 235 c-154 129
-285 241 -293 248 -11 11 -8 24 20 81 30 60 34 79 34 144 0 221 -190 364 -438
330 -39 -6 -80 -13 -90 -16 -17 -5 -17 -4 1 33 34 67 81 211 102 313 20 98 26
268 11 320 -6 21 2 37 44 90 138 173 195 300 195 432 0 119 -74 234 -187 289
-70 35 -180 38 -268 9 -178 -59 -409 -282 -517 -497 -41 -82 -51 -93 -64 -72
-11 19 -109 58 -162 65 -125 16 -263 -56 -379 -200 -26 -33 -35 -37 -47 -27
-12 10 -18 1 -38 -61 -12 -40 -31 -88 -42 -106 l-19 -33 -352 358 -353 358
-64 -62 -63 -63 81 -82 c44 -46 214 -220 378 -387 266 -272 297 -307 292 -330
-46 -215 -26 -332 73 -432 75 -75 146 -102 251 -97 55 3 91 11 133 31 67 31
177 132 234 214 l38 55 12 -71 c22 -133 83 -229 173 -274 l49 -24 -30 -29
c-45 -43 -94 -122 -114 -183 -26 -81 -15 -174 33 -263 2 -3 -5 -4 -16 -1 -17
4 -20 -3 -25 -58 -4 -34 -7 -84 -7 -112 0 -42 -2 -48 -17 -43 -10 4 -206 127
-436 273 -230 146 -419 264 -421 262 -2 -2 -24 -36 -49 -76 l-46 -72 67 -44
c37 -23 201 -128 365 -232 l297 -189 -37 -23 c-21 -12 -44 -26 -52 -30 -10 -7
4 -29 59 -97 39 -48 70 -89 68 -90 -2 -1 -172 -33 -378 -71 -206 -37 -384 -70
-395 -72 -103 -19 -96 -22 -163 58 -34 40 -62 76 -62 79 0 3 23 12 51 19 142
37 270 138 304 242 25 75 17 197 -17 264 -50 97 -157 171 -308 212 -52 14
-104 18 -260 18 -222 0 -299 -13 -418 -70 -144 -69 -212 -162 -220 -300 l-4
-80 -77 3 c-60 3 -88 -1 -135 -18 -117 -44 -235 -197 -295 -380 -127 -394 -76
-696 134 -800 43 -21 64 -25 150 -25 92 0 104 2 154 30 179 99 321 424 325
745 0 63 -2 129 -6 146 l-7 32 58 -18 c72 -23 192 -40 276 -40 l63 0 121 -139
c67 -77 121 -146 121 -154 0 -29 12 -47 31 -47 11 0 22 -6 25 -14 3 -8 -96
-190 -220 -405 -124 -215 -226 -394 -226 -398 0 -5 30 -25 66 -46 l65 -38 -60
-44 c-223 -164 -331 -375 -274 -535 11 -30 23 -62 26 -70 5 -12 -12 -22 -75
-47 -45 -17 -84 -31 -85 -30 -1 2 25 233 59 515 34 282 59 515 55 518 -8 8
-166 28 -172 22 -5 -5 -40 -278 -100 -788 -19 -168 -38 -314 -40 -325 -4 -18
-12 -20 -107 -20 -93 0 -109 -3 -160 -28 -75 -37 -147 -117 -195 -217 -21 -43
-40 -79 -43 -79 -3 -1 -24 30 -47 67 -23 37 -68 97 -100 132 l-59 65 4 70 c2
40 -2 96 -10 131 l-15 61 340 209 c186 115 341 212 343 216 3 4 -15 37 -38 73
-41 63 -50 71 -177 145 l-133 79 -49 -56 -49 -56 100 -56 c55 -31 100 -58 100
-61 0 -4 -504 -317 -542 -337 -4 -2 -30 8 -57 21 -62 32 -146 45 -212 35 -185
-29 -365 -248 -467 -569 -97 -306 -47 -518 145 -616 53 -26 67 -29 162 -30 82
0 106 -3 109 -15 14 -40 104 -162 167 -225 141 -141 296 -176 434 -98 l45 25
31 -35 c65 -74 149 -108 268 -108 216 0 381 224 443 602 11 66 14 133 11 220
-5 137 -24 207 -77 293 -16 26 -24 47 -19 47 6 0 76 25 155 57 124 48 144 59
138 75 -6 22 9 24 26 3 25 -31 117 -55 208 -55 73 0 103 6 185 34 187 65 394
206 520 355 20 25 37 38 37 30 0 -30 59 -136 96 -171 96 -92 251 -119 368 -65
76 35 134 83 191 157 38 49 114 183 128 224 2 6 27 -15 56 -46 79 -86 187
-127 286 -109 25 5 45 7 45 6 0 -1 -32 -136 -71 -301 -161 -681 -178 -758
-171 -768 4 -6 7 -39 7 -73 0 -55 -3 -64 -24 -75 -70 -38 -178 -203 -217 -333
-19 -65 -34 -91 -34 -60 0 25 -205 973 -212 980 -8 8 -172 -31 -175 -42 -2 -5
52 -273 121 -594 68 -321 126 -593 128 -604 2 -11 8 -19 14 -19 5 1 27 5 49 8
l40 7 1 -108 c2 -167 40 -292 114 -377 l30 -34 -41 -32 -41 -33 -22 24 c-13
13 -132 153 -265 312 -133 158 -244 287 -247 287 -11 0 -144 -114 -142 -121 2
-4 121 -148 266 -319 145 -172 262 -314 260 -316 -2 -2 -31 4 -63 13 -41 12
-100 17 -190 17 -112 0 -138 -3 -186 -22 -70 -28 -140 -88 -176 -150 -15 -26
-28 -49 -29 -51 -2 -2 -36 17 -76 41 -213 129 -413 187 -550 159 -121 -25
-205 -90 -257 -200 -22 -48 -26 -70 -26 -146 0 -129 34 -196 164 -326 137
-136 316 -247 496 -306 65 -22 100 -27 185 -27 100 -1 109 1 172 32 77 38 126
89 160 168 26 62 16 62 146 5 253 -112 482 -137 636 -71 68 29 138 100 172
173 25 54 29 74 29 152 0 80 -3 97 -30 150 -17 33 -58 88 -91 123 l-61 64 55
140 c47 116 54 141 42 148 -8 5 -24 16 -35 24 -19 15 -18 15 20 16 45 0 127
35 181 76 45 35 116 134 152 212 23 51 43 74 127 145 77 66 101 81 103 67 2
-9 -6 -190 -17 -400 -12 -211 -21 -400 -21 -420 l0 -37 83 -7 83 -7 149 72
c83 39 151 72 152 73 4 4 -30 131 -37 139 -4 5 -47 -12 -96 -36 -49 -24 -98
-47 -109 -51 -20 -6 -20 -4 7 546 15 303 27 553 25 554 -1 2 -45 4 -97 5 l-95
2 -3 -62 c-2 -33 -4 -61 -6 -61 -10 0 -133 54 -141 61 -7 7 -3 14 9 21 11 6
38 28 60 48 38 34 44 36 76 27 47 -12 132 -4 202 21 89 31 171 87 272 181 100
96 141 121 148 93 3 -10 -96 -294 -219 -632 -122 -338 -223 -617 -223 -620 0
-3 36 -18 81 -34 l81 -29 164 23 164 23 0 26 c0 14 3 36 6 47 5 21 8 21 70 9
35 -6 66 -14 69 -16 2 -3 -155 -195 -350 -427 -195 -233 -355 -427 -355 -432
0 -10 134 -123 144 -121 4 0 92 103 198 228 105 126 201 238 213 251 l22 23
-18 -71 c-63 -248 -47 -499 39 -625 l27 -39 -41 -83 c-56 -110 -84 -219 -84
-319 1 -136 53 -234 161 -304 l62 -40 140 0 c137 0 140 1 197 31 114 61 217
160 327 315 178 250 244 501 174 660 -34 77 -73 118 -170 181 -2 1 4 39 13 85
45 237 23 427 -64 553 -61 88 -170 144 -289 147 -65 2 -67 3 -133 58 l-68 57
-157 32 c-87 17 -161 31 -164 31 -4 0 -17 -25 -29 -55 -15 -38 -29 -57 -44
-60 -39 -9 -136 -22 -136 -18 0 2 61 171 136 376 75 204 141 385 146 400 l10
28 48 -53 c53 -60 122 -102 194 -118 32 -7 66 -26 106 -59 155 -129 450 -273
599 -293 23 -3 26 -10 38 -83 51 -310 268 -685 454 -784 45 -24 46 -25 150
-257 57 -129 109 -234 114 -234 21 0 160 70 172 86 11 16 15 15 47 -10 40 -30
154 -86 175 -86 8 0 -21 -17 -65 -39 -157 -76 -346 -245 -466 -416 l-56 -80
-294 -59 c-161 -33 -296 -61 -299 -62 -7 -4 27 -184 36 -193 3 -2 110 17 238
42 127 26 234 47 237 47 3 0 5 -21 5 -47 1 -27 4 -65 8 -85 l8 -38 101 0 c91
0 99 2 87 16 -17 21 -17 108 0 160 l13 42 148 29 148 30 38 -44 39 -44 80 69
c56 48 91 71 118 76 32 6 37 11 38 34 0 25 53 78 156 156 l24 19 -16 -39 c-31
-77 -112 -181 -235 -305 -69 -70 -150 -143 -180 -163 l-55 -36 171 0 171 0 74
78 c123 126 206 253 245 372 18 56 24 170 13 225 -6 29 1 36 193 200 110 94
205 177 213 185 12 13 5 24 -48 83 -62 67 -63 68 -216 127 -161 63 -172 63
-187 17 -6 -16 -11 3 -19 63 -7 47 -15 99 -19 116 -7 30 -6 30 51 48 181 57
309 161 351 286 l19 54 72 24 73 24 -7 82 c-4 44 -8 82 -9 84 -2 1 -33 -9 -69
-22 l-65 -25 -31 62 c-17 34 -37 71 -44 82 -13 18 -4 77 69 500 45 264 80 483
76 486 -7 6 -194 41 -198 36 -1 -1 -34 -189 -73 -417 -39 -228 -74 -427 -77
-441 l-5 -25 -72 19 c-58 16 -106 20 -242 20 -178 1 -292 -14 -418 -53 -34
-11 -63 -20 -64 -20 -1 0 -18 28 -39 62 l-36 63 6 105 c4 58 9 123 12 146 l6
41 -79 23 -80 23 28 71 c30 77 69 252 69 309 l0 34 68 5 c74 6 161 37 249 89
83 50 243 208 334 328 135 179 209 357 209 502 l0 64 62 29 c232 108 298 426
127 620 l-30 35 33 5 c29 5 810 76 832 76 5 0 6 41 2 97 l-7 97 -101 153 c-55
84 -106 153 -113 153 -7 0 -29 -7 -49 -15 -20 -8 -52 -22 -72 -30 l-35 -15 81
-117 81 -118 -33 -3 c-186 -18 -434 -39 -436 -37 -2 2 213 250 479 551 l482
547 -34 29 c-118 101 -125 105 -214 123 -85 18 -87 19 -81 44 74 334 30 624
-113 753 -36 32 -52 57 -66 98 -28 87 -56 151 -90 205 l-32 51 116 125 c64 69
189 205 279 302 l163 176 -71 68 -72 68 -191 51 -192 51 -41 -81 c-49 -95 -60
-82 108 -122 62 -14 118 -29 125 -33 8 -4 -64 -89 -199 -234 l-211 -228 -41 8
c-22 4 -77 7 -121 7 -98 -2 -174 -28 -246 -86 l-51 -40 -77 35 c-80 37 -141
57 -228 77 l-53 12 0 103 0 103 -77 17 c-43 9 -86 19 -95 21 -16 5 -18 -5 -18
-108 l0 -113 -80 3 c-74 3 -87 7 -172 54 -198 107 -288 159 -288 168 0 24 27
70 120 203 l101 146 54 11 c119 25 234 108 294 214 16 28 40 85 53 126 20 67
23 95 23 250 0 96 -3 187 -8 203 l-7 27 -125 0 c-97 0 -125 -3 -125 -13 0 -7
4 -38 9 -68 5 -30 12 -73 14 -96 5 -40 4 -42 -15 -32 -11 6 -23 7 -28 2 -4 -4
-64 -91 -135 -193 -70 -102 -130 -187 -132 -190 -11 -11 -98 99 -133 170 -38
76 -99 257 -121 363 l-12 57 -124 0 c-115 0 -123 -1 -123 -19z m-2029 -407
c30 -15 68 -80 69 -115 1 -64 -79 -221 -164 -323 l-24 -29 -34 20 c-62 38
-136 56 -208 51 -87 -7 -148 -36 -223 -107 l-58 -55 21 54 c38 96 128 219 244
336 88 87 126 118 185 147 82 41 141 48 192 21z m1619 -244 c281 -34 489 -108
591 -210 63 -63 69 -89 35 -141 l-27 -40 -72 40 c-40 22 -133 73 -207 115 -87
48 -137 71 -141 64 -5 -7 -34 -10 -76 -9 -137 4 -307 -48 -498 -155 l-99 -56
-42 45 c-98 103 -72 242 56 307 88 45 295 62 480 40z m-2534 -279 c91 -56 84
-222 -19 -446 -89 -194 -187 -323 -279 -369 -61 -31 -91 -32 -137 -8 -56 30
-73 72 -68 172 5 101 28 173 101 321 85 171 178 289 261 332 41 22 104 21 141
-2z m654 -36 c17 -9 30 -19 30 -23 0 -13 -115 -100 -167 -127 -54 -28 -133
-45 -133 -28 0 6 18 38 40 72 67 103 156 144 230 106z m2101 -141 c90 -50 109
-67 109 -97 0 -18 -6 -18 -117 -12 -64 4 -132 14 -151 22 -19 8 -46 12 -60 8
-27 -7 -170 13 -177 25 -11 18 219 97 291 99 12 1 59 -20 105 -45z m-2041
-236 c-54 -251 -162 -463 -256 -498 -39 -15 -93 -12 -125 7 -80 48 -98 218
-44 430 28 112 28 113 54 105 14 -4 60 -7 101 -6 85 1 160 25 237 77 l48 32 3
-23 c2 -13 -6 -69 -18 -124z m1428 -53 c3 -32 6 -36 25 -32 99 24 266 8 259
-24 -2 -8 -33 -93 -69 -189 -42 -114 -73 -182 -89 -195 -31 -26 -175 -83 -244
-96 -104 -19 -194 14 -236 87 -66 113 9 272 210 444 77 67 79 68 110 55 26
-11 32 -20 34 -50z m1148 -7 c53 -30 70 -44 57 -46 -24 -4 -173 14 -180 22 -5
5 34 66 43 66 2 0 38 -19 80 -42z m-536 -71 c0 -1 -25 -27 -56 -57 l-55 -55
20 53 c12 29 21 55 21 57 0 3 16 5 35 5 19 0 35 -1 35 -3z m302 -132 c29 -4
63 -8 76 -11 l22 -4 -20 -40 c-11 -22 -26 -66 -33 -98 l-13 -57 -163 -124
-162 -123 -47 13 c-51 15 -168 18 -218 7 -54 -12 -31 24 42 67 141 82 323 235
402 338 20 26 42 45 49 43 7 -3 36 -8 65 -11z m1635 -53 l-55 -59 -14 25 c-12
23 -10 27 22 54 32 26 89 50 99 42 2 -2 -21 -30 -52 -62z m-819 -68 c127 -71
110 -74 164 26 23 43 26 45 63 42 22 -2 83 -18 135 -35 109 -37 105 -28 76
-159 -10 -43 -20 -124 -24 -180 l-7 -103 -53 -8 c-30 -5 -55 -7 -58 -5 -2 3
12 33 31 69 19 35 35 67 35 71 0 4 -45 31 -101 58 -118 60 -101 69 -180 -92
-40 -81 -58 -108 -72 -108 -49 0 -237 34 -315 56 -100 29 -171 65 -220 112
l-35 32 204 154 c175 132 207 152 224 143 11 -6 71 -38 133 -73z m1090 -53
c10 -28 9 -29 -31 -34 -23 -2 -51 -8 -62 -12 -12 -5 -3 10 24 38 24 25 48 44
52 42 4 -3 12 -18 17 -34z m-3871 -130 c64 -30 91 -103 63 -176 -51 -134 -437
-348 -655 -362 -69 -5 -87 -3 -123 16 -47 24 -72 64 -72 116 0 102 132 225
355 331 185 88 343 115 432 75z m3941 -286 c7 -245 -20 -403 -86 -499 -41 -60
-74 -79 -139 -84 -50 -3 -64 0 -100 24 -67 44 -70 56 -44 191 52 263 143 456
253 534 41 30 90 40 102 21 5 -8 11 -92 14 -187z m-1787 11 c97 -83 252 -148
433 -182 53 -10 96 -21 96 -24 0 -3 -15 -33 -32 -66 l-33 -60 -266 120 c-146
67 -307 140 -359 164 l-93 42 78 59 79 59 27 -37 c14 -21 46 -54 70 -75z
m-712 -213 c33 -46 64 -83 68 -83 5 0 46 30 93 66 82 64 84 65 93 42 12 -29
22 -228 13 -262 -6 -23 -9 -24 -34 -15 -55 21 -136 29 -202 19 -82 -13 -208
-72 -283 -134 -31 -25 -57 -41 -57 -36 0 29 67 207 115 305 52 106 109 189
125 183 4 -2 35 -40 69 -85z m1771 3 c0 -38 47 -211 74 -273 20 -48 25 -79 29
-178 6 -145 29 -226 90 -317 80 -120 201 -182 352 -181 61 0 94 6 141 25 l61
24 -234 -265 c-128 -145 -233 -268 -233 -272 0 -4 34 -37 75 -73 42 -36 70
-66 63 -67 -7 0 -119 -10 -249 -22 -226 -21 -239 -22 -295 -5 -33 9 -84 21
-115 28 l-56 11 -7 207 c-3 114 -9 332 -12 486 l-7 279 -66 -7 c-36 -3 -88 -6
-114 -6 l-49 0 7 -85 7 -85 -61 0 -61 0 85 170 c47 94 88 170 93 170 4 0 64
-25 135 -57 76 -33 131 -53 136 -47 5 5 25 47 46 93 l37 83 -12 180 c-6 99
-10 181 -8 182 3 3 108 21 136 25 6 0 12 -10 12 -23z m-5322 -61 c121 -35 182
-92 182 -170 0 -102 -117 -175 -306 -192 l-71 -6 -87 102 -88 101 -27 -20
c-14 -11 -46 -37 -71 -59 l-45 -40 38 -38 c20 -21 37 -41 37 -44 0 -10 -112
10 -176 32 -144 47 -188 168 -94 253 70 63 176 94 355 104 142 8 274 -1 353
-23z m2392 -237 c164 -139 299 -256 299 -260 1 -3 -163 -207 -364 -453 -201
-246 -365 -450 -365 -454 0 -3 19 -19 41 -36 l40 -30 -40 -19 c-23 -11 -41
-24 -41 -29 0 -9 88 -207 95 -215 1 -2 74 30 161 71 l159 73 82 -16 82 -17 26
66 27 67 110 51 111 51 37 -56 c45 -70 108 -123 197 -165 60 -28 78 -32 153
-32 47 0 99 3 115 7 26 6 36 1 72 -32 l41 -39 -62 -64 c-111 -116 -159 -263
-127 -391 11 -45 11 -47 -54 -176 -36 -71 -65 -132 -65 -134 0 -7 191 -109
194 -105 2 2 22 41 45 86 l41 82 50 -25 c69 -34 180 -56 271 -53 l76 3 69 -61
c38 -34 67 -64 64 -66 -3 -3 -106 -36 -230 -75 -204 -63 -226 -68 -237 -53 -7
9 -25 34 -40 55 -38 53 -132 112 -201 127 -118 24 -264 -15 -336 -90 l-28 -30
-24 28 c-69 82 -209 139 -310 126 l-52 -6 -25 55 -26 56 230 391 c127 215 229
392 227 393 -20 15 -161 96 -166 96 -4 0 -92 -146 -197 -325 -176 -300 -191
-323 -205 -306 -14 18 -19 17 -101 -23 l-87 -41 38 -86 37 -86 -54 -90 -54
-91 -52 21 c-67 27 -194 29 -251 4 -22 -10 -40 -16 -42 -14 -1 1 22 107 52
235 30 128 54 235 54 238 0 2 -9 4 -19 4 -17 0 -16 6 15 68 82 161 86 412 9
676 -14 49 -24 90 -23 91 2 1 22 12 46 24 62 31 120 87 150 145 24 45 27 62
27 151 0 85 -4 107 -24 148 -86 175 -380 298 -711 297 -58 -1 -125 -5 -150
-10 -51 -10 -41 -17 -138 105 -37 47 -41 56 -20 43 121 -79 189 -120 192 -117
2 2 22 33 44 69 39 63 41 69 48 178 6 98 9 112 23 106 106 -44 115 -46 231
-42 95 4 131 10 207 36 91 31 249 106 288 136 11 8 26 13 33 11 7 -3 147 -118
312 -257z m2229 -34 c2 -2 -58 -122 -133 -268 l-136 -266 78 -40 c42 -23 68
-38 57 -34 -89 32 -174 46 -302 51 -79 3 -143 7 -143 9 0 1 7 31 16 66 24 89
21 218 -5 294 -19 59 -20 66 -6 145 8 46 15 132 15 191 l0 106 278 -126 c152
-69 279 -127 281 -128z m381 141 l0 -53 -30 11 c-17 6 -29 14 -27 17 2 3 12
24 23 47 10 22 22 39 26 36 5 -2 8 -28 8 -58z m-1267 -256 c20 -5 37 -16 37
-23 0 -30 -66 -209 -112 -304 -36 -74 -68 -122 -110 -168 -33 -35 -64 -64 -68
-64 -4 0 -15 19 -24 43 -10 26 -29 51 -50 65 -27 19 -33 28 -26 40 5 10 23 82
40 162 34 161 40 172 137 220 77 38 118 45 176 29z m-4652 -22 c61 -41 74 -82
73 -242 0 -119 -4 -157 -28 -250 -55 -217 -120 -343 -203 -392 -49 -29 -103
-28 -149 2 -96 63 -97 353 -3 623 80 229 202 331 310 259z m7005 -62 c-71
-154 -147 -225 -240 -225 -55 0 -94 18 -129 59 -24 29 -64 128 -55 137 3 2 19
-1 37 -7 20 -7 71 -10 132 -7 84 4 107 9 161 36 35 17 76 45 92 61 16 17 31
29 34 27 2 -2 -12 -39 -32 -81z m343 49 c3 -3 -128 -154 -134 -154 -1 0 14 38
33 84 36 83 37 85 67 79 16 -3 32 -7 34 -9z m-3507 -269 l28 -24 -36 -61 c-49
-83 -92 -191 -112 -278 l-17 -73 -220 -103 c-121 -57 -221 -102 -223 -100 -2
1 92 119 210 261 117 142 240 291 272 331 32 39 61 72 65 72 3 0 18 -12 33
-25z m-1407 -11 c221 -36 368 -115 395 -213 17 -66 -18 -127 -95 -162 -59 -27
-82 -24 -132 21 -104 91 -243 105 -375 37 l-70 -36 -46 16 c-150 50 -226 133
-203 221 34 125 218 166 526 116z m-676 -76 c-22 -78 -2 -180 52 -261 34 -51
128 -125 203 -158 42 -18 46 -22 40 -47 -4 -15 -8 -28 -8 -29 -1 -1 -24 5 -51
13 -60 19 -148 13 -208 -14 -136 -61 -249 -210 -342 -450 l-32 -84 -32 43
c-90 127 -257 167 -446 108 -62 -19 -200 -26 -193 -9 2 4 79 138 173 299 l170
292 55 -61 55 -61 60 50 c58 50 61 55 115 194 l55 142 165 31 c91 18 168 32
172 33 4 0 2 -14 -3 -31z m-516 -113 c-19 -56 -30 -63 -44 -31 -10 20 -9 30 5
51 9 14 25 25 36 25 18 0 18 -2 3 -45z m4460 -127 c4 -66 6 -149 6 -182 l-1
-61 -9 54 c-18 106 -84 204 -179 266 -33 21 -60 40 -60 42 0 2 53 3 118 3
l119 0 6 -122z m-404 -64 c133 -30 210 -95 219 -183 7 -73 -30 -135 -111 -185
-27 -16 -32 -16 -109 3 -45 12 -114 21 -154 21 -75 0 -217 -21 -296 -45 -27
-8 -48 -12 -48 -9 0 2 23 50 51 105 57 114 59 107 -33 150 -27 12 -48 26 -48
31 0 5 16 33 36 63 34 51 38 54 88 59 28 3 67 8 86 10 63 7 253 -4 319 -20z
m-1121 -151 c-14 -40 -19 -77 -16 -125 3 -76 1 -78 -64 -78 -50 0 -113 34
-138 75 -36 59 -35 60 100 124 69 33 128 60 131 60 3 1 -3 -25 -13 -56z
m-1813 -54 c33 -5 90 -9 127 -9 l67 0 25 -77 c41 -131 59 -268 53 -406 -6
-147 -23 -202 -78 -252 -32 -28 -47 -35 -82 -35 -81 0 -138 57 -189 187 -28
72 -31 88 -32 218 -2 120 -5 148 -25 198 -22 57 -23 74 -4 170 5 27 7 28 41
22 21 -4 64 -11 97 -16z m3346 -124 c3 -69 2 -70 -24 -73 l-27 -3 20 43 c11
24 20 58 20 77 0 60 8 28 11 -44z m-3716 -13 c29 -18 30 -22 33 -103 2 -46 10
-120 17 -163 14 -78 14 -80 -17 -175 -105 -331 -264 -505 -398 -436 -120 62
-99 332 50 640 102 209 217 296 315 237z m2550 -59 c-16 -27 -30 -51 -32 -55
-2 -4 -15 -2 -28 4 -24 11 -23 11 28 54 29 24 54 44 55 44 2 0 -8 -21 -23 -47z
m1175 -352 c0 -71 3 -143 6 -160 l7 -31 93 0 93 0 168 96 168 96 35 -19 c55
-29 126 -89 148 -125 20 -32 25 -62 23 -122 -2 -45 -73 -110 -144 -131 l-58
-17 -35 31 c-49 43 -125 80 -191 92 -67 13 -159 -1 -246 -36 l-59 -23 -66 23
c-86 30 -142 54 -142 61 0 3 8 18 19 32 72 103 95 245 56 345 -6 15 0 17 59
17 l66 0 0 -129z m-298 13 c-1 -54 -48 -146 -63 -123 -12 19 -11 72 2 106 11
30 49 76 57 68 2 -2 4 -25 4 -51z m-249 4 c-12 -64 -6 -168 11 -216 l16 -44
-103 -48 c-113 -53 -289 -112 -384 -130 -94 -16 -212 -14 -261 5 -23 10 -42
18 -42 19 0 1 49 96 109 211 l109 210 184 2 c100 2 219 9 263 17 44 7 86 14
93 15 9 1 10 -10 5 -41z m-3958 -2 c18 -8 41 -25 50 -39 60 -92 1 -218 -163
-349 -298 -237 -554 -313 -632 -186 -56 91 3 215 163 346 231 189 460 279 582
228z m4248 -497 l58 -30 -71 -77 c-61 -65 -201 -259 -212 -294 -3 -7 -16 -7
-43 1 -22 6 -54 11 -72 11 -30 0 -32 3 -52 63 -17 51 -33 75 -86 127 -36 35
-65 68 -65 71 0 4 38 19 84 34 83 26 283 119 321 148 18 14 23 14 50 -4 17
-11 56 -33 88 -50z m-6503 -36 c0 -5 -41 -32 -90 -61 l-89 -54 41 -66 c29 -44
38 -67 29 -70 -26 -9 -97 -70 -128 -110 -50 -66 -66 -136 -61 -261 4 -76 13
-128 31 -185 14 -44 24 -83 21 -88 -10 -15 -89 -8 -117 11 -40 26 -56 52 -67
111 -33 176 146 622 295 736 46 34 136 59 135 37z m6914 -98 c49 -8 134 -18
189 -22 l99 -6 -6 -43 c-19 -141 -200 -409 -396 -587 -66 -60 -186 -127 -225
-127 -21 0 -23 6 -30 67 -9 90 -30 166 -65 242 l-30 64 25 45 c76 136 301 398
334 388 9 -3 56 -12 105 -21z m-6799 -90 c-3 -36 -9 -38 -52 -28 l-37 9 34 21
c47 29 59 28 55 -2z m3825 -176 c21 -12 47 -38 58 -58 l21 -37 -41 -50 c-56
-68 -91 -120 -138 -206 -32 -60 -40 -68 -40 -45 0 15 -3 27 -7 27 -4 0 -49
-12 -100 -26 -52 -15 -96 -24 -100 -20 -11 10 46 186 83 256 46 89 90 139 138
161 53 24 80 24 126 -2z m687 1 c71 -43 86 -142 38 -256 l-16 -38 -69 153
c-39 85 -70 156 -70 158 0 12 91 0 117 -17z m526 -14 c18 -7 46 -28 61 -47
l29 -34 -84 -26 c-251 -80 -251 -80 -243 -57 45 143 136 206 237 164z m-5085
-15 c16 -10 -48 -179 -110 -291 l-42 -75 -14 45 c-8 25 -16 84 -19 131 -6 100
9 146 60 178 33 21 101 28 125 12z m916 -51 c45 -40 67 -103 73 -215 11 -187
-50 -465 -131 -593 -34 -54 -90 -100 -130 -107 -100 -19 -194 84 -167 182 13
47 14 184 1 238 -16 69 44 308 103 408 14 24 44 60 66 80 37 33 47 37 96 37
46 0 59 -4 89 -30z m3443 -207 l92 -206 -25 -31 c-52 -63 -190 -199 -232 -228
-45 -31 -119 -67 -138 -68 -7 0 0 30 18 77 51 130 79 272 85 428 l5 140 46 48
c26 26 49 47 52 47 3 0 46 -93 97 -207z m1369 99 c-45 -68 -91 -188 -117 -309
-12 -54 -22 -99 -23 -100 -1 -1 -27 7 -57 18 l-56 21 -12 131 c-7 73 -15 146
-18 163 l-5 30 144 44 c78 24 150 47 158 51 24 12 22 4 -14 -49z m404 13 c5
-3 3 -24 -2 -47 -5 -24 -8 -79 -6 -123 5 -95 34 -166 97 -237 48 -54 50 -69
26 -218 -17 -107 -38 -183 -67 -252 l-20 -47 -39 79 c-46 91 -139 190 -249
266 -80 54 -79 50 -55 190 46 270 145 417 269 399 22 -3 42 -8 46 -10z m-5905
-87 c27 -45 65 -120 86 -167 l37 -86 4 -172 c3 -164 2 -173 -18 -193 -26 -27
-90 -36 -137 -21 -71 24 -178 145 -246 279 l-22 43 34 38 c67 74 138 197 182
314 10 26 21 47 24 47 4 0 29 -37 56 -82z m5019 -84 c3 -26 6 -75 6 -109 l0
-63 -52 -7 c-113 -14 -205 -58 -262 -126 -36 -43 -73 -116 -82 -164 -6 -33 -8
-36 -15 -19 -13 35 -29 166 -31 250 -2 79 -1 81 36 129 l37 49 167 52 c92 29
172 52 178 53 6 1 14 -20 18 -45z m-1329 -231 c-31 -114 -44 -143 -45 -98 0
49 55 214 67 201 3 -2 -7 -49 -22 -103z m-220 -62 l0 -109 -27 23 c-33 28
-128 65 -165 65 -24 0 -25 2 -20 36 3 20 7 38 9 39 3 4 178 52 193 54 6 1 10
-41 10 -108z m1545 -102 c0 -36 -30 -140 -55 -188 -13 -25 -37 -59 -54 -75
-30 -29 -31 -29 -51 -11 -28 26 -60 96 -60 133 0 41 21 91 48 115 28 25 89 46
135 47 31 0 37 -3 37 -21z m274 -60 c50 -20 56 -25 56 -51 0 -16 -3 -28 -8
-26 -35 15 -121 76 -122 86 0 17 9 15 74 -9z m-1925 -98 c13 -23 20 -45 17
-49 -20 -19 -105 75 -106 116 0 26 64 -22 89 -67z m-185 -119 c36 -39 134 -90
188 -98 l38 -7 0 -61 c0 -65 -24 -228 -42 -286 -8 -28 -44 -63 -167 -165 -85
-71 -161 -131 -168 -133 -18 -5 -60 77 -72 142 -6 33 -11 85 -11 116 0 60 25
266 35 290 3 8 24 29 45 45 l38 30 -23 40 -23 41 39 84 40 84 26 -44 c14 -25
40 -60 57 -78z m2453 12 c48 -41 123 -134 108 -134 -4 0 -148 93 -161 104 -6
5 -13 76 -8 76 4 0 31 -21 61 -46z m-350 -88 c88 -57 134 -94 147 -117 11 -19
34 -52 52 -74 25 -31 30 -44 23 -58 -6 -9 -18 -17 -28 -17 -51 0 -309 110
-413 177 l-46 29 33 27 c18 14 46 46 61 71 16 25 32 45 36 46 4 0 65 -38 135
-84z m858 -134 l-7 -55 -25 25 -24 25 25 38 c14 21 27 43 27 49 1 6 3 3 6 -8
3 -10 2 -43 -2 -74z m-2505 -37 c0 -1 -7 -8 -15 -15 -13 -10 -15 -9 -15 8 0
15 5 20 15 16 8 -4 15 -7 15 -9z m2405 -315 c130 -84 135 -89 83 -116 -50 -26
-128 -105 -154 -156 -13 -27 -26 -48 -28 -48 -2 0 -32 65 -67 145 -35 80 -68
143 -74 141 -5 -2 -36 -16 -67 -30 l-57 -25 -10 51 c-6 28 -10 52 -9 53 2 1
23 9 47 19 49 19 131 74 131 88 0 5 24 -7 53 -25 28 -19 97 -62 152 -97z m970
-155 c22 -3 56 -10 76 -15 l36 -10 -23 -122 c-31 -164 -32 -155 19 -163 82
-13 85 -15 41 -41 -44 -27 -184 -74 -217 -73 -17 0 -38 25 -87 102 -42 65
-101 138 -166 204 -116 118 -119 109 41 121 102 8 209 7 280 -3z m-721 -332
c8 -73 0 -78 -42 -27 -41 50 -48 103 -21 162 l21 47 18 -60 c9 -33 20 -88 24
-122z m339 -38 l59 -80 -28 -5 c-16 -3 -42 -5 -59 -4 -16 1 -51 2 -76 3 l-46
1 7 53 c4 28 5 85 1 125 l-7 72 44 -42 c25 -24 72 -79 105 -123z m-3616 24
c-8 -19 -17 -43 -21 -53 -7 -19 -8 -19 -29 3 l-22 22 38 35 c21 20 41 34 43
31 2 -2 -2 -19 -9 -38z m1952 21 c83 -23 122 -109 122 -264 0 -98 -12 -203
-32 -278 -7 -29 -15 -38 -32 -38 -76 -1 -229 -100 -341 -222 -91 -99 -91 -98
-90 82 1 143 25 272 78 431 38 110 71 172 125 232 55 61 102 77 170 57z
m-2472 -195 c147 -28 365 -114 465 -183 152 -105 196 -223 113 -306 -48 -49
-121 -63 -234 -47 -144 21 -366 100 -492 177 -41 24 -66 49 -92 91 -19 32 -47
69 -61 82 -30 29 -34 67 -10 117 36 76 147 100 311 69z m-922 -27 c165 -47
413 -204 472 -298 19 -30 51 -71 70 -92 86 -89 36 -214 -93 -234 -136 -20
-481 153 -647 324 -37 39 -74 86 -82 106 -31 74 -9 167 47 197 58 32 117 31
233 -3z m4935 -119 c41 -6 125 -9 187 -6 l111 5 10 -26 c40 -105 44 -207 12
-260 -27 -44 -76 -72 -126 -72 -47 0 -148 46 -183 84 l-23 25 27 35 c31 41 34
35 -44 119 l-36 38 -30 -37 -31 -37 -39 53 c-31 42 -36 54 -24 60 8 5 23 16
34 24 13 11 31 14 50 11 17 -3 64 -11 105 -16z m625 -314 c53 -19 100 -37 105
-40 5 -3 -51 -58 -126 -121 l-135 -115 -32 23 c-17 12 -53 30 -80 39 l-48 16
43 26 c57 33 125 107 149 163 11 24 22 44 24 44 2 0 47 -16 100 -35z m-1891
-158 c58 -77 14 -258 -111 -455 -102 -161 -226 -293 -324 -347 -134 -73 -255
-8 -253 135 1 68 14 110 70 225 l44 90 98 0 c87 0 103 3 157 29 93 45 173 134
232 254 26 56 52 99 57 98 6 -1 19 -14 30 -29z m-288 -24 c-29 -56 -77 -113
-116 -139 -22 -15 -43 -25 -46 -22 -5 5 163 188 172 188 3 0 -2 -12 -10 -27z
m1881 -207 c4 -3 4 -7 2 -9 -2 -2 -46 -38 -97 -82 -51 -43 -94 -76 -96 -74
-38 40 -75 93 -70 100 8 14 99 58 141 69 38 9 110 7 120 -4z m-358 -207 c18
-22 31 -42 29 -44 -2 -3 -38 -11 -79 -20 -41 -8 -85 -17 -99 -21 -20 -4 -13 7
40 60 35 36 67 66 70 66 3 0 20 -19 39 -41z"/>
<path d="M2095 8316 c-149 -40 -302 -126 -449 -252 -34 -29 -42 -32 -55 -20
-23 19 -249 156 -259 156 -4 0 -29 -22 -56 -49 l-48 -49 98 -58 c120 -70 111
-64 96 -72 -7 -4 -207 -122 -446 -262 l-434 -255 32 -56 c17 -31 38 -66 47
-79 l15 -23 393 231 c217 128 395 232 396 232 2 0 -1 -17 -7 -37 -24 -88 16
-213 93 -293 133 -137 359 -129 602 21 l50 30 43 -42 43 -42 -23 -36 c-13 -20
-117 -194 -233 -387 l-210 -351 69 -41 69 -42 154 -6 153 -7 11 40 c6 21 14
53 17 71 l7 32 -117 0 c-64 0 -116 2 -116 4 0 3 88 151 195 329 l194 324 75 7
c103 9 204 39 323 96 143 68 236 131 325 220 105 104 143 183 142 290 0 61 -5
86 -28 134 -36 74 -92 131 -165 165 -51 24 -67 26 -176 26 -104 -1 -130 -5
-199 -28 -43 -15 -106 -41 -139 -58 l-60 -29 -16 22 c-72 103 -153 149 -275
154 -48 2 -101 -2 -131 -10z m241 -181 c14 -9 30 -27 36 -41 10 -22 8 -27 -13
-41 -13 -9 -60 -52 -104 -97 -86 -87 -131 -163 -141 -240 -6 -42 -11 -47 -72
-87 -223 -142 -373 -165 -445 -67 -28 37 -26 102 3 164 48 102 265 287 438
373 121 61 239 75 298 36z m695 -45 c80 -22 116 -102 84 -186 -35 -92 -196
-219 -396 -313 -141 -66 -207 -83 -167 -43 6 6 10 13 7 15 -2 2 -38 24 -80 49
l-76 46 -38 -65 -38 -65 -20 21 -21 20 66 60 c81 74 152 177 182 262 l22 64
105 52 c156 79 283 107 370 83z"/>
<path d="M3515 7863 c-37 -192 -87 -444 -109 -561 l-42 -214 -49 66 c-28 36
-54 66 -58 66 -4 0 -35 -14 -68 -31 -55 -27 -60 -32 -47 -47 45 -53 129 -164
126 -166 -1 -2 -228 -41 -503 -86 -275 -46 -502 -85 -504 -87 -5 -3 18 -163
25 -174 4 -6 1174 188 1182 196 9 9 -19 150 -34 173 l-15 22 53 -6 c45 -5 74
0 188 36 74 23 137 44 139 46 2 1 0 34 -4 72 l-7 69 -106 -33 c-58 -18 -108
-31 -110 -29 -3 2 39 228 92 501 54 272 96 497 94 499 -3 3 -156 35 -168 35
-4 0 -38 -156 -75 -347z"/>
<path d="M12006 7251 l-79 -37 -56 19 c-44 15 -76 18 -147 15 -81 -3 -100 -8
-167 -41 -95 -47 -151 -109 -214 -234 -41 -82 -50 -93 -77 -98 -17 -3 -121
-17 -231 -31 -110 -14 -202 -27 -204 -29 -2 -3 2 -54 9 -114 l13 -110 26 5
c59 10 364 44 368 41 14 -15 -24 -58 -88 -98 -41 -25 -73 -50 -71 -55 1 -5 36
-64 77 -130 58 -94 78 -135 86 -180 36 -204 127 -352 255 -415 37 -18 56 -44
195 -269 85 -137 157 -249 161 -250 4 0 42 21 84 47 83 51 81 49 194 246 83
145 84 128 -11 208 l-47 39 -68 -120 c-37 -66 -70 -120 -73 -120 -6 0 -107
157 -116 180 -3 11 9 21 42 34 72 29 179 142 226 239 43 88 81 223 97 346 12
90 15 352 5 394 -7 27 -5 29 97 42 45 6 47 8 43 33 -3 15 -9 60 -14 99 -9 71
-12 76 -118 227 -59 85 -110 155 -113 155 -3 0 -41 -17 -84 -38z m-180 -209
c23 -12 74 -68 74 -80 0 -7 -341 -54 -347 -48 -7 6 69 105 93 121 52 34 126
36 180 7z m138 -328 c11 -30 6 -253 -9 -367 -31 -239 -103 -388 -207 -431
l-36 -15 -121 193 -121 194 1 118 c0 129 11 249 22 261 7 6 381 58 443 62 12
0 25 -6 28 -15z"/>
<path d="M1091 6064 c-58 -21 -115 -59 -144 -98 -185 -242 -43 -520 371 -726
335 -167 587 -139 697 76 27 53 30 68 30 154 0 85 -3 101 -29 154 -82 167
-351 357 -610 431 -105 30 -244 34 -315 9z m190 -168 c212 -45 507 -228 586
-363 49 -84 30 -165 -48 -206 -51 -27 -170 -18 -278 22 -217 80 -454 245 -496
345 -25 60 -20 120 15 160 47 53 110 65 221 42z"/>
<path d="M568 5522 c-26 -9 -50 -20 -53 -24 -4 -4 17 -49 46 -100 30 -51 56
-96 57 -100 2 -4 -75 -8 -171 -8 -95 0 -235 -3 -310 -7 l-137 -6 0 -89 0 -88
173 0 c96 0 276 3 401 7 l228 6 -4 82 c-5 80 -6 84 -79 213 -45 81 -80 132
-89 131 -8 0 -36 -8 -62 -17z"/>
<path d="M12493 5107 l-163 -41 0 -82 c0 -44 3 -83 6 -86 3 -3 62 9 132 28 70
19 130 34 133 34 4 0 -61 -268 -143 -596 -82 -328 -147 -599 -144 -601 8 -8
198 -54 203 -49 3 2 67 254 144 558 l139 553 0 151 0 151 -51 11 c-68 16 -71
16 -256 -31z"/>
<path d="M11070 5059 c-47 -27 -85 -55 -84 -62 1 -6 75 -143 166 -304 l166
-292 -44 -47 c-52 -55 -117 -181 -134 -257 l-12 -54 -80 41 c-77 40 -83 41
-177 41 -92 0 -101 -2 -173 -37 -162 -81 -310 -277 -412 -551 -134 -359 -104
-615 88 -746 63 -43 149 -71 216 -71 52 0 60 -2 60 -19 0 -37 80 -177 136
-239 31 -35 55 -64 53 -66 -2 -2 -17 -10 -34 -19 -49 -25 -122 -104 -152 -165
-25 -51 -28 -67 -28 -162 0 -99 2 -110 33 -172 74 -151 252 -249 523 -288 94
-14 345 -14 424 0 33 5 65 10 72 10 6 0 87 -150 179 -332 91 -183 168 -334
169 -336 2 -2 39 15 84 37 86 44 88 46 221 238 l64 92 -50 58 c-28 31 -54 58
-60 59 -5 2 -42 -47 -83 -108 l-74 -111 -122 244 -122 244 31 24 c50 39 105
112 124 166 11 34 17 79 17 140 -1 95 -17 148 -70 225 -23 35 -24 36 -8 100
26 111 1 217 -78 341 -52 81 -186 211 -277 269 -39 25 -71 47 -71 50 -1 3 21
6 48 7 132 7 260 102 331 247 50 101 75 199 90 352 13 126 7 271 -15 389 l-13
70 31 44 30 44 -34 31 c-78 69 -126 117 -172 170 -65 75 -147 115 -249 123
l-76 6 -175 311 c-96 171 -179 311 -184 312 -4 1 -46 -20 -93 -47z m660 -894
c57 -116 42 -120 -24 -6 -36 62 -66 116 -66 119 0 20 66 -63 90 -113z m-177
-185 c71 -127 131 -230 134 -230 3 0 30 14 61 32 l55 31 -6 -144 c-7 -174 -25
-260 -73 -357 -37 -75 -78 -113 -137 -127 -72 -18 -148 29 -194 119 -77 153
-94 548 -32 774 20 77 44 132 57 132 4 0 65 -104 135 -230z m-593 -52 c124
-63 125 -269 4 -572 -64 -158 -94 -206 -153 -244 -49 -32 -102 -95 -135 -159
-34 -67 -142 -69 -207 -5 -74 75 -75 212 -3 431 92 276 229 491 349 547 63 30
89 30 145 2z m276 -759 c22 -25 17 -27 -45 -10 -55 14 -58 16 -50 38 5 13 14
35 20 50 l10 27 26 -44 c14 -25 32 -52 39 -61z m-71 -226 c221 -72 533 -301
605 -446 35 -70 40 -114 13 -101 -155 68 -403 102 -608 84 -78 -6 -81 -6 -120
23 -100 75 -186 173 -214 243 -12 31 -12 32 86 131 l98 99 45 -8 c25 -5 68
-16 95 -25z m-48 -749 c80 -50 219 -113 296 -134 l48 -13 60 -118 c32 -65 59
-122 59 -125 0 -13 -423 4 -491 20 -199 46 -293 117 -291 223 2 79 50 135 149
173 70 28 87 25 170 -26z m742 -98 c21 -26 31 -77 22 -119 -9 -36 -63 -107
-83 -107 -4 0 -28 40 -53 89 l-44 90 27 6 c15 3 46 17 67 30 47 29 49 29 64
11z"/>
<path d="M3590 3100 c-152 -56 -298 -213 -413 -445 -81 -164 -112 -286 -105
-413 8 -134 67 -232 177 -290 164 -88 310 -55 472 107 125 126 230 299 296
488 24 69 27 93 28 203 0 117 -2 129 -28 182 -73 148 -270 226 -427 168z m227
-171 c40 -38 53 -73 53 -142 0 -81 -28 -173 -90 -299 -160 -324 -333 -474
-457 -398 -47 28 -65 62 -70 133 -15 204 230 634 409 718 56 25 119 21 155
-12z"/>
<path d="M1220 2795 c-141 -40 -229 -139 -261 -295 -15 -70 -7 -241 16 -338
l17 -74 -42 -41 c-64 -63 -125 -154 -185 -274 -187 -379 -161 -660 73 -775 60
-30 75 -33 152 -33 71 1 94 5 140 28 76 37 150 99 214 180 54 69 148 239 181
330 13 34 26 52 44 59 98 37 156 85 199 165 40 76 53 137 53 250 l0 92 337
171 c185 95 339 174 341 176 3 2 -11 36 -30 75 -31 65 -42 77 -119 132 -47 33
-106 75 -131 93 l-46 33 -52 -53 -53 -54 97 -67 97 -68 -239 -123 c-203 -105
-239 -121 -244 -106 -4 9 -23 61 -42 114 -113 309 -308 461 -517 403z m126
-161 c45 -22 112 -97 151 -170 31 -60 103 -254 103 -280 0 -8 -28 -28 -63 -45
l-64 -32 -39 26 c-60 39 -136 59 -205 55 -53 -3 -60 -1 -64 17 -22 96 -26 132
-26 211 -1 126 27 190 96 220 40 18 70 17 111 -2z m-40 -612 c6 -4 31 -47 56
-97 39 -78 45 -96 41 -137 -3 -27 -8 -48 -12 -48 -10 0 -52 47 -81 89 -30 44
-90 182 -84 193 6 10 65 10 80 0z m329 -119 c-4 -38 -15 -86 -25 -108 l-18
-40 -1 60 c-1 33 -4 76 -7 96 -5 30 -3 37 18 46 38 19 41 16 33 -54z m-557
-45 c32 -88 152 -232 223 -269 45 -22 45 -17 -21 -150 -79 -157 -167 -261
-254 -299 -60 -27 -103 -21 -150 21 -79 68 -68 226 32 456 36 85 141 273 152
273 4 0 11 -15 18 -32z"/>
<path d="M1980 659 c-94 -346 -159 -604 -154 -609 5 -4 41 -16 79 -27 l70 -19
154 36 c91 21 156 41 159 49 2 7 1 41 -3 76 l-6 62 -112 -28 c-61 -15 -113
-26 -115 -24 -3 2 59 235 135 517 77 282 139 514 138 516 -1 1 -35 12 -76 23
-41 11 -81 22 -90 25 -13 3 -44 -101 -179 -597z"/>
<path d="M9637 735 l-26 -75 22 -5 c12 -2 69 -9 127 -15 58 -7 106 -13 107
-14 1 -1 -94 -141 -212 -310 -118 -169 -215 -309 -215 -312 0 -2 55 -4 123 -4
l122 0 230 329 c126 181 228 332 228 337 0 4 -31 30 -70 56 l-69 49 -164 19
c-91 11 -168 20 -172 20 -3 0 -18 -34 -31 -75z"/>
</g>
</svg>
